<svg width="245" height="53" viewBox="0 0 245 53" fill="none" xmlns="http://www.w3.org/2000/svg">
<path fill-rule="evenodd" clip-rule="evenodd" d="M31.8493 52.0806C48.9701 52.0806 62 47.5936 62 30.6604C62 13.7271 48.1208 0 31 0C13.8792 0 0 13.7271 0 30.6604C0 47.5936 14.7285 52.0806 31.8493 52.0806ZM25.4393 34.7123C16.9089 22.3599 9.88528 19.4903 9.88528 19.4903C9.88528 19.4903 21.0416 22.3026 26.5214 29.8403C28.444 32.4848 29.8198 35.5233 30.7959 38.3538C31.7728 35.5233 33.1494 32.4848 35.0727 29.8403C40.5544 22.3026 51.704 19.4903 51.704 19.4903C51.704 19.4903 44.6813 22.3599 36.15 34.7123C34.2435 37.4727 32.8096 39.6687 31.7321 41.4147C32.2802 43.4505 32.6153 45.2185 32.8089 46.4266C33.7229 43.7452 35.0006 41.1895 36.6137 38.8316C40.8946 32.9477 49.5485 29.58 49.5485 29.58C49.5485 29.58 47.922 32.1368 39.8467 40.6545C32.9171 47.9658 31.475 51.9301 31.475 51.9301C31.7389 50.1472 32.1561 48.3954 32.7194 46.6931C32.4095 45.9249 31.837 44.7527 30.7945 42.972C29.7522 44.7521 29.1798 45.924 28.8699 46.6922C29.4333 48.3949 29.8505 50.1469 30.1144 51.9301C30.1144 51.9301 28.6723 47.9658 21.7427 40.6545C13.6673 32.1368 12.0409 29.58 12.0409 29.58C12.0409 29.58 20.6967 32.9477 24.9766 38.8316C26.5895 41.1896 27.867 43.7454 28.7808 46.4269C28.9746 45.2192 29.3101 43.452 29.8583 41.4171C28.7808 39.6707 27.3465 37.4739 25.4393 34.7123ZM29.2898 23.7477C29.3244 27.2774 29.9487 30.7771 31.1376 34.1053C32.1543 30.7445 32.673 27.2557 32.6777 23.7477C32.7169 20.4098 32.0889 17.0972 30.8298 14C30.8298 14 29.1245 17.0322 29.2898 23.7477Z" fill="#1D4D4F"/>
<path d="M87.0924 9.38531C87.0944 9.68333 87.0042 9.9747 86.8342 10.2195L79.4658 20.6266H86.9236V22.7617H76V21.7091C75.9997 21.5785 76.0232 21.4489 76.0695 21.3267C76.1151 21.2058 76.1751 21.0907 76.2483 20.9841L83.6366 10.5273H76.4717V8.40219H87.0973L87.0924 9.38531ZM94.1828 18.4171C93.5835 18.4387 92.9864 18.5 92.3953 18.6008C91.995 18.6651 91.6045 18.7803 91.2334 18.9434C90.9875 19.0485 90.7734 19.2163 90.6127 19.43C90.4893 19.6078 90.4234 19.8193 90.4241 20.0358C90.4074 20.2092 90.4335 20.3842 90.5002 20.5452C90.5668 20.7062 90.672 20.8484 90.8064 20.9593C91.0994 21.1553 91.4473 21.2527 91.7994 21.2374C92.25 21.2487 92.697 21.1552 93.1053 20.9643C93.5105 20.7535 93.8752 20.4728 94.1828 20.1351V18.4171ZM88.5621 13.9931C89.7099 12.9274 91.2266 12.3489 92.7925 12.3794C93.3396 12.3702 93.883 12.4698 94.3913 12.6723C94.8426 12.8547 95.2491 13.1325 95.583 13.4866C95.9154 13.8437 96.1691 14.2666 96.3277 14.7279C96.4995 15.2398 96.5834 15.777 96.576 16.3168V22.7617H95.4638C95.2792 22.7715 95.095 22.7357 94.9275 22.6574C94.7796 22.5583 94.6735 22.408 94.6296 22.2354L94.4112 21.5005C94.1709 21.7177 93.919 21.9216 93.6564 22.1112C93.4169 22.2836 93.1607 22.4316 92.8918 22.5532C92.6195 22.6747 92.3348 22.7663 92.0427 22.8262C91.7158 22.8914 91.3831 22.9231 91.0497 22.9206C90.6459 22.9245 90.2439 22.8659 89.858 22.7468C89.5108 22.6403 89.1895 22.4628 88.9146 22.2255C88.6436 21.9875 88.4312 21.6901 88.294 21.3565C88.1413 20.9747 88.067 20.5661 88.0755 20.1549C88.0745 19.8933 88.1164 19.6334 88.1996 19.3853C88.293 19.1176 88.4362 18.87 88.6217 18.6554C88.8423 18.4018 89.0981 18.181 89.3814 18C89.7391 17.7728 90.1246 17.5925 90.5283 17.4638C91.0452 17.2964 91.575 17.1719 92.1123 17.0914C92.7962 16.9884 93.4862 16.9303 94.1778 16.9176V16.3218C94.2209 15.7806 94.0656 15.2423 93.7409 14.8074C93.5795 14.6397 93.3835 14.5093 93.1665 14.4253C92.9495 14.3413 92.7168 14.3056 92.4846 14.3208C92.1482 14.311 91.8124 14.358 91.4916 14.4598C91.2523 14.5424 91.0212 14.6471 90.8014 14.7726L90.2602 15.0854C90.0953 15.1788 89.9085 15.2268 89.719 15.2244C89.5625 15.2293 89.4089 15.1822 89.2821 15.0904C89.1669 15.0055 89.0692 14.8993 88.9941 14.7776L88.5621 13.9931ZM101.333 13.6654C101.722 13.3001 102.164 12.9955 102.644 12.7617C103.169 12.5195 103.743 12.4006 104.322 12.4141C104.829 12.4046 105.333 12.501 105.801 12.6971C106.217 12.875 106.586 13.147 106.879 13.4916C107.177 13.8508 107.4 14.2662 107.534 14.713C107.688 15.2199 107.764 15.7474 107.758 16.2771V22.7617H105.305V16.2771C105.338 15.7601 105.186 15.2483 104.878 14.8322C104.714 14.654 104.512 14.5154 104.286 14.4268C104.061 14.3382 103.818 14.3019 103.577 14.3208C103.162 14.3186 102.753 14.4175 102.385 14.6088C101.996 14.8144 101.641 15.0791 101.333 15.3933V22.7617H98.8799V8.00497H101.333V13.6654ZM112.395 14.3406C112.668 13.7882 113.054 13.2993 113.527 12.9057C113.967 12.557 114.515 12.3726 115.077 12.3843C115.477 12.3645 115.873 12.4723 116.209 12.6922L116.05 14.5293C116.029 14.6249 115.978 14.7117 115.906 14.7776C115.834 14.8295 115.746 14.8557 115.657 14.852C115.509 14.8469 115.361 14.8303 115.216 14.8024C115.027 14.7699 114.836 14.7533 114.645 14.7527C114.397 14.7502 114.152 14.7923 113.92 14.8769C113.71 14.9551 113.516 15.0712 113.349 15.2195C113.173 15.3763 113.023 15.5588 112.902 15.7607C112.763 15.9927 112.641 16.235 112.539 16.4856V22.7617H110.082V12.573H111.521C111.707 12.5544 111.894 12.6018 112.048 12.7071C112.167 12.8405 112.237 13.0103 112.246 13.1887L112.395 14.3406ZM122.743 18.4171C122.144 18.4387 121.547 18.5 120.955 18.6008C120.555 18.6651 120.165 18.7803 119.794 18.9434C119.548 19.0485 119.334 19.2163 119.173 19.43C119.049 19.6078 118.984 19.8193 118.984 20.0358C118.968 20.2092 118.994 20.3842 119.06 20.5452C119.127 20.7062 119.232 20.8484 119.367 20.9593C119.66 21.1553 120.007 21.2527 120.36 21.2374C120.81 21.2487 121.257 21.1552 121.665 20.9643C122.071 20.7535 122.435 20.4728 122.743 20.1351V18.4171ZM117.122 13.998C118.27 12.9324 119.787 12.3539 121.353 12.3843C121.9 12.3752 122.443 12.4748 122.951 12.6773C123.403 12.8597 123.809 13.1374 124.143 13.4916C124.476 13.8486 124.729 14.2715 124.888 14.7329C125.06 15.2447 125.144 15.7819 125.136 16.3218V22.7617H124.019C123.834 22.7715 123.65 22.7357 123.483 22.6574C123.335 22.5583 123.229 22.408 123.185 22.2354L122.966 21.5005C122.726 21.7177 122.474 21.9216 122.212 22.1112C121.972 22.2836 121.716 22.4316 121.447 22.5532C121.175 22.6747 120.89 22.7663 120.598 22.8262C120.271 22.8914 119.938 22.9231 119.605 22.9206C119.201 22.9245 118.799 22.8659 118.413 22.7468C118.066 22.6403 117.745 22.4628 117.47 22.2255C117.199 21.9875 116.986 21.6901 116.849 21.3565C116.696 20.9747 116.622 20.5661 116.631 20.1549C116.63 19.8933 116.672 19.6334 116.755 19.3853C116.852 19.1204 116.999 18.8761 117.187 18.6654C117.407 18.4117 117.663 18.191 117.946 18.01C118.304 17.7827 118.69 17.6025 119.093 17.4737C119.61 17.3064 120.14 17.1818 120.677 17.1013C121.361 16.9983 122.051 16.9402 122.743 16.9275V16.3317C122.786 15.7906 122.631 15.2523 122.306 14.8173C122.145 14.6472 121.949 14.5146 121.731 14.4288C121.513 14.343 121.279 14.3061 121.045 14.3208C120.708 14.311 120.373 14.358 120.052 14.4598C119.812 14.5424 119.581 14.6471 119.362 14.7726L118.82 15.0854C118.655 15.1788 118.469 15.2268 118.279 15.2244C118.123 15.2293 117.969 15.1822 117.842 15.0904C117.727 15.0055 117.629 14.8993 117.554 14.7776L117.122 13.998ZM133.835 15.1798C133.595 14.8713 133.283 14.626 132.927 14.4648C132.592 14.3243 132.232 14.2534 131.869 14.2562C131.523 14.2509 131.181 14.3221 130.866 14.4648C130.563 14.6082 130.3 14.8249 130.101 15.0953C129.871 15.4176 129.705 15.782 129.615 16.1678C129.494 16.6702 129.438 17.1856 129.446 17.7021C129.437 18.2107 129.486 18.7187 129.59 19.2165C129.664 19.5767 129.803 19.9201 130.002 20.2294C130.163 20.4758 130.39 20.6719 130.658 20.7955C130.931 20.9149 131.228 20.9742 131.526 20.9692C131.981 20.9831 132.431 20.8733 132.827 20.6515C133.216 20.4124 133.559 20.1064 133.84 19.7478L133.835 15.1798ZM136.288 8.00993V22.7617H134.789C134.648 22.7758 134.508 22.7381 134.394 22.6558C134.279 22.5735 134.199 22.4522 134.168 22.3148L133.959 21.3317C133.559 21.7934 133.08 22.1801 132.544 22.4737C131.971 22.7748 131.33 22.9252 130.682 22.9107C130.152 22.9166 129.628 22.7975 129.153 22.5631C128.681 22.3245 128.272 21.9794 127.956 21.5551C127.598 21.0642 127.335 20.51 127.182 19.9216C126.99 19.196 126.898 18.4476 126.909 17.6971C126.902 16.9821 127.006 16.2703 127.217 15.5869C127.403 14.9739 127.703 14.4012 128.1 13.8987C128.474 13.4305 128.945 13.0493 129.481 12.7815C130.043 12.5075 130.662 12.3697 131.288 12.3794C131.788 12.3661 132.285 12.4575 132.748 12.6475C133.148 12.8239 133.515 13.0693 133.83 13.3724V8L136.288 8.00993ZM141.005 13.8292C141.209 13.6249 141.427 13.4342 141.656 13.2582C141.881 13.0845 142.124 12.9348 142.38 12.8113C142.642 12.6863 142.917 12.5898 143.2 12.5233C143.512 12.4515 143.832 12.4165 144.153 12.4191C144.661 12.4096 145.165 12.506 145.633 12.7021C146.048 12.88 146.417 13.1519 146.71 13.4965C147.008 13.8558 147.231 14.2711 147.366 14.718C147.519 15.2249 147.595 15.7523 147.589 16.282V22.7617H145.136V16.2771C145.169 15.7601 145.018 15.2483 144.709 14.8322C144.545 14.654 144.343 14.5154 144.118 14.4268C143.892 14.3382 143.65 14.3019 143.408 14.3208C142.994 14.3186 142.585 14.4175 142.217 14.6088C141.827 14.8144 141.472 15.0791 141.164 15.3933V22.7617H138.711V12.573H140.211C140.35 12.564 140.488 12.6037 140.601 12.6852C140.714 12.7667 140.796 12.885 140.831 13.0199L141.005 13.8292ZM152.455 12.578V22.7617H149.992V12.573L152.455 12.578ZM152.793 9.60874C152.796 9.81406 152.753 10.0175 152.668 10.2046C152.585 10.3863 152.469 10.5513 152.326 10.6912C152.182 10.8316 152.014 10.9444 151.829 11.0238C151.633 11.1078 151.422 11.15 151.209 11.148C151.002 11.149 150.797 11.1067 150.608 11.0238C150.423 10.9453 150.254 10.8324 150.111 10.6912C149.972 10.5508 149.859 10.3858 149.779 10.2046C149.695 10.017 149.653 9.81391 149.655 9.60874C149.653 9.39549 149.695 9.18414 149.779 8.98809C149.857 8.80286 149.97 8.63432 150.111 8.49156C150.254 8.35031 150.423 8.23742 150.608 8.15889C150.797 8.07599 151.002 8.03371 151.209 8.03476C151.422 8.03269 151.633 8.07496 151.829 8.15889C152.014 8.23838 152.182 8.35114 152.326 8.49156C152.471 8.63387 152.587 8.80237 152.668 8.98809C152.753 9.18216 152.795 9.39206 152.793 9.60378V9.60874ZM162.256 14.7329C162.195 14.8143 162.123 14.8877 162.043 14.9514C161.953 15.0098 161.847 15.0377 161.74 15.0308C161.607 15.0302 161.478 14.9905 161.368 14.9166C161.248 14.8405 161.106 14.7544 160.941 14.6584C160.753 14.5526 160.555 14.4661 160.35 14.4002C160.075 14.3174 159.788 14.2789 159.501 14.286C159.111 14.2775 158.724 14.3573 158.369 14.5194C158.047 14.6723 157.769 14.9026 157.559 15.1897C157.332 15.5077 157.168 15.8669 157.078 16.2473C156.966 16.7072 156.913 17.1793 156.919 17.6525C156.912 18.1413 156.971 18.6289 157.093 19.1023C157.188 19.4866 157.357 19.8489 157.589 20.1698C157.797 20.4492 158.07 20.6741 158.383 20.8253C158.713 20.9782 159.073 21.0546 159.436 21.0487C159.758 21.0598 160.08 21.0109 160.384 20.9047C160.6 20.8226 160.805 20.716 160.995 20.5869C161.161 20.4711 161.305 20.3651 161.427 20.2691C161.544 20.1752 161.689 20.1243 161.839 20.1251C161.927 20.1201 162.015 20.1386 162.094 20.1787C162.172 20.2189 162.239 20.2792 162.286 20.3535L162.991 21.2473C162.738 21.5496 162.446 21.8167 162.122 22.0417C161.813 22.2522 161.479 22.4255 161.129 22.5581C160.789 22.687 160.436 22.7785 160.077 22.8312C159.72 22.8839 159.36 22.9104 158.999 22.9107C158.389 22.9144 157.784 22.7945 157.222 22.5581C156.667 22.3241 156.169 21.9736 155.762 21.5303C155.325 21.0503 154.987 20.4883 154.769 19.8769C154.516 19.1596 154.393 18.4029 154.406 17.6425C154.4 16.9361 154.509 16.2333 154.729 15.5621C154.929 14.9504 155.251 14.386 155.677 13.9037C156.107 13.4282 156.636 13.0535 157.227 12.8064C157.9 12.5304 158.624 12.3952 159.352 12.4091C160.037 12.3963 160.718 12.523 161.353 12.7815C161.93 13.0299 162.455 13.3873 162.897 13.8342L162.256 14.7329ZM166.983 8.00993V16.4558H167.44C167.574 16.4614 167.707 16.4395 167.832 16.3913C167.95 16.3291 168.051 16.2387 168.125 16.1281L170.658 13C170.752 12.8711 170.872 12.763 171.01 12.6822C171.164 12.6043 171.335 12.5667 171.507 12.573H173.751L170.588 16.3565C170.389 16.63 170.14 16.8626 169.853 17.0417C169.992 17.1408 170.117 17.2577 170.226 17.3893C170.338 17.5257 170.442 17.6682 170.538 17.8163L173.935 22.7617H171.72C171.55 22.7659 171.381 22.7338 171.224 22.6674C171.074 22.594 170.952 22.4737 170.876 22.3248L168.269 18.4618C168.204 18.3369 168.104 18.2334 167.981 18.1639C167.839 18.1101 167.687 18.0864 167.534 18.0944H166.978V22.7617H164.53V8.00497L166.983 8.00993ZM181.194 16.5005C181.196 16.1958 181.151 15.8927 181.06 15.6018C180.977 15.3292 180.84 15.076 180.658 14.857C180.472 14.642 180.239 14.4721 179.977 14.3605C179.674 14.2324 179.348 14.1698 179.019 14.1768C178.714 14.1599 178.408 14.2049 178.121 14.309C177.833 14.4131 177.57 14.5741 177.346 14.7825C176.906 15.2553 176.632 15.8584 176.566 16.5005H181.194ZM176.522 17.9752C176.549 18.438 176.642 18.8946 176.8 19.3307C176.926 19.6807 177.122 20.0015 177.376 20.2741C177.613 20.5216 177.903 20.7118 178.225 20.8302C178.573 20.9563 178.941 21.0185 179.312 21.0139C179.66 21.0209 180.006 20.974 180.34 20.8749C180.6 20.7938 180.852 20.6908 181.095 20.5671C181.31 20.4545 181.498 20.3519 181.661 20.2592C181.803 20.1723 181.966 20.1243 182.132 20.1202C182.222 20.1145 182.311 20.1326 182.392 20.1728C182.472 20.2129 182.54 20.2735 182.589 20.3486L183.294 21.2423C183.031 21.5528 182.723 21.8222 182.381 22.0417C182.049 22.2539 181.694 22.4272 181.323 22.5581C180.961 22.6861 180.586 22.7775 180.206 22.8312C179.839 22.8832 179.469 22.9097 179.099 22.9107C178.424 22.9167 177.754 22.7971 177.122 22.5581C176.522 22.3319 175.978 21.9778 175.529 21.5204C175.057 21.0298 174.694 20.4464 174.461 19.8074C174.19 19.0513 174.058 18.252 174.074 17.4489C174.069 16.7803 174.183 16.1162 174.411 15.4876C174.624 14.8954 174.953 14.3518 175.38 13.8888C175.812 13.4266 176.336 13.0597 176.919 12.8113C177.567 12.538 178.266 12.4027 178.969 12.4141C179.576 12.4078 180.178 12.5121 180.747 12.722C181.273 12.9165 181.751 13.2232 182.147 13.6207C182.551 14.0349 182.864 14.5287 183.066 15.0705C183.297 15.698 183.41 16.3631 183.398 17.0318C183.417 17.2864 183.375 17.5419 183.274 17.7766C183.222 17.8461 183.152 17.9006 183.072 17.9346C182.992 17.9685 182.904 17.9808 182.817 17.9702L176.522 17.9752ZM182.47 8.2433L180.012 10.8352C179.911 10.9495 179.788 11.0424 179.65 11.1082C179.506 11.1629 179.352 11.1882 179.198 11.1827H177.728L179.138 8.76961C179.223 8.61407 179.342 8.4799 179.486 8.37736C179.667 8.27587 179.874 8.2293 180.082 8.2433H182.47ZM196.278 14.5591C196.227 14.649 196.156 14.7256 196.07 14.7825C195.985 14.8286 195.888 14.8509 195.792 14.8471C195.658 14.8435 195.528 14.8095 195.409 14.7478C195.274 14.6816 195.116 14.6071 194.938 14.5243C194.74 14.4346 194.536 14.3599 194.327 14.3009C194.063 14.2302 193.791 14.1967 193.518 14.2016C193.115 14.1785 192.716 14.2865 192.381 14.5094C192.251 14.5993 192.146 14.7197 192.074 14.86C192.002 15.0003 191.966 15.1562 191.968 15.3138C191.966 15.4152 191.983 15.5162 192.02 15.6108C192.057 15.7054 192.112 15.7918 192.182 15.865C192.345 16.0288 192.537 16.1616 192.748 16.2572C193.006 16.3769 193.274 16.4765 193.547 16.5551C193.845 16.6445 194.148 16.7422 194.456 16.8481C194.764 16.954 195.067 17.0748 195.365 17.2105C195.656 17.3417 195.925 17.5157 196.164 17.7269C196.4 17.9356 196.592 18.1887 196.73 18.4717C196.881 18.8017 196.954 19.1618 196.944 19.5244C196.949 19.9893 196.859 20.4505 196.68 20.8799C196.506 21.2923 196.239 21.6592 195.901 21.9524C195.527 22.2702 195.093 22.5099 194.625 22.6574C194.058 22.8336 193.466 22.9174 192.872 22.9057C192.527 22.9063 192.183 22.8747 191.844 22.8114C191.517 22.7503 191.194 22.6622 190.881 22.5482C190.585 22.4412 190.299 22.3083 190.027 22.151C189.781 22.0096 189.549 21.8432 189.337 21.6544L189.903 20.721C189.968 20.6162 190.056 20.5278 190.161 20.4628C190.275 20.4001 190.404 20.3692 190.533 20.3734C190.686 20.3723 190.836 20.4154 190.965 20.4975C191.101 20.5803 191.258 20.673 191.437 20.7756C191.639 20.8853 191.85 20.9783 192.068 21.0537C192.365 21.1462 192.675 21.1882 192.986 21.1778C193.239 21.1827 193.49 21.1475 193.731 21.0735C193.919 21.0152 194.094 20.9226 194.248 20.8004C194.377 20.6958 194.479 20.5612 194.545 20.4082C194.608 20.2622 194.64 20.1051 194.64 19.9464C194.648 19.7307 194.571 19.5203 194.426 19.3605C194.264 19.194 194.072 19.0593 193.86 18.9633C193.6 18.8413 193.332 18.7401 193.056 18.6604C192.755 18.571 192.447 18.4734 192.132 18.3674C191.817 18.2614 191.509 18.137 191.209 17.9951C190.914 17.8573 190.643 17.6747 190.404 17.4538C190.163 17.2268 189.971 16.9531 189.838 16.6495C189.687 16.2848 189.614 15.8923 189.625 15.4975C189.623 15.0873 189.708 14.6814 189.873 14.3059C190.04 13.9247 190.289 13.5854 190.603 13.3128C190.957 13.0129 191.365 12.7837 191.805 12.6375C192.341 12.4616 192.903 12.3776 193.468 12.3893C194.123 12.3807 194.774 12.4987 195.385 12.7369C195.92 12.9429 196.41 13.2535 196.824 13.6505L196.278 14.5591ZM201.273 8.00497V22.7617H198.821V8.00497H201.273ZM212.505 12.573V22.7617H211.005C210.865 22.7758 210.725 22.7381 210.61 22.6558C210.496 22.5735 210.416 22.4522 210.385 22.3148L210.216 21.5005C209.813 21.9138 209.347 22.2607 208.835 22.5283C208.283 22.801 207.673 22.9356 207.058 22.9206C206.554 22.9297 206.053 22.8333 205.588 22.6376C205.172 22.4573 204.804 22.1838 204.511 21.8382C204.211 21.4777 203.986 21.0607 203.85 20.6117C203.696 20.1048 203.621 19.5774 203.627 19.0477V12.573H206.08V19.0477C206.047 19.5654 206.2 20.0778 206.512 20.4926C206.675 20.6699 206.877 20.8081 207.101 20.8966C207.326 20.9852 207.567 21.0219 207.808 21.004C208.222 21.0063 208.63 20.9092 208.999 20.721C209.389 20.5183 209.744 20.2552 210.052 19.9414V12.573H212.505ZM222.247 13.5859C222.246 13.7586 222.216 13.93 222.157 14.0924C222.106 14.243 222.025 14.3815 221.919 14.4995L217.078 20.8749H222.093V22.7617H214.233V21.7389C214.237 21.6014 214.264 21.4656 214.312 21.3367C214.367 21.1774 214.448 21.0282 214.55 20.8948L219.436 14.4449H214.521V12.573H222.247V13.5859ZM221.939 8.40219L219.665 11.1629H217.361L215.087 8.40219H216.785C216.881 8.4017 216.977 8.41851 217.068 8.45184C217.146 8.47987 217.218 8.52193 217.281 8.57597L218.334 9.67826C218.367 9.71136 218.402 9.74942 218.438 9.79246L218.552 9.92652C218.586 9.88018 218.62 9.83549 218.657 9.79246C218.693 9.74942 218.728 9.71136 218.761 9.67826L219.804 8.57597C219.871 8.52851 219.945 8.49012 220.022 8.46177C220.111 8.4262 220.205 8.40767 220.3 8.40715L221.939 8.40219ZM226.507 20.1202C226.747 20.4286 227.059 20.674 227.415 20.8352C227.744 20.9743 228.097 21.0452 228.453 21.0437C228.803 21.0493 229.15 20.9799 229.471 20.8401C229.779 20.6992 230.044 20.4801 230.241 20.2046C230.473 19.872 230.638 19.4977 230.727 19.1023C230.847 18.5764 230.902 18.0378 230.891 17.4985C230.96 16.6513 230.765 15.8035 230.335 15.0705C230.15 14.8244 229.908 14.6276 229.629 14.4977C229.35 14.3678 229.043 14.3087 228.736 14.3257C228.304 14.3157 227.877 14.4276 227.505 14.6485C227.122 14.8926 226.782 15.1998 226.502 15.5571L226.507 20.1202ZM226.507 13.8242C226.9 13.4066 227.362 13.0591 227.872 12.7964C228.405 12.5343 228.992 12.4032 229.585 12.4141C230.136 12.4057 230.682 12.5246 231.179 12.7617C231.655 12.9941 232.069 13.3341 232.391 13.7547C232.744 14.2264 233.005 14.7604 233.16 15.3287C233.347 16.0044 233.437 16.7032 233.428 17.4042C233.439 18.1664 233.337 18.926 233.125 19.6584C232.945 20.288 232.647 20.8777 232.247 21.3963C231.877 21.8669 231.407 22.2486 230.871 22.5134C230.314 22.7829 229.702 22.9189 229.084 22.9107C228.791 22.9141 228.5 22.8824 228.215 22.8163C227.967 22.7572 227.727 22.6689 227.5 22.5532C227.283 22.4417 227.081 22.3032 226.899 22.141C226.712 21.9738 226.538 21.7929 226.378 21.5998L226.268 22.285C226.246 22.4292 226.174 22.5611 226.065 22.6574C225.95 22.7332 225.815 22.7697 225.678 22.7617H224.064V8.00497H226.517L226.507 13.8242ZM244.297 12.573L238.741 25.5621C238.682 25.7151 238.585 25.8503 238.458 25.9544C238.3 26.0552 238.114 26.1022 237.927 26.0884H236.105L238.011 21.9921L233.89 12.568H236.045C236.207 12.5585 236.368 12.6079 236.497 12.7071C236.603 12.7926 236.688 12.9013 236.745 13.0248L238.91 18.3079C238.982 18.4829 239.043 18.662 239.094 18.8441C239.143 19.0229 239.191 19.2049 239.238 19.3903C239.297 19.2049 239.357 19.0212 239.416 18.8391C239.476 18.6571 239.542 18.4767 239.615 18.2979L241.661 13.0248C241.714 12.892 241.806 12.7779 241.924 12.6971C242.045 12.6135 242.189 12.5701 242.336 12.573H244.297Z" fill="#1D4D4F"/>
<path d="M88.6576 33.5847C88.6037 33.6883 88.5279 33.7789 88.4354 33.8503C88.3482 33.9086 88.2448 33.9377 88.14 33.9335C87.9979 33.9275 87.8605 33.881 87.744 33.7994C87.6017 33.7092 87.432 33.6095 87.2351 33.5003C87.0145 33.38 86.7835 33.2799 86.5449 33.2011C86.2449 33.1056 85.9313 33.0594 85.6164 33.0646C85.3282 33.0592 85.041 33.0986 84.7649 33.1813C84.5415 33.2491 84.3336 33.36 84.1529 33.5077C83.9906 33.6408 83.8628 33.8111 83.7805 34.0043C83.6968 34.2069 83.6546 34.4243 83.6564 34.6435C83.6478 34.9115 83.7359 35.1737 83.9046 35.3821C84.0873 35.5926 84.3107 35.7641 84.5613 35.8861C84.8604 36.0356 85.1714 36.1601 85.491 36.2585C85.8386 36.3685 86.1949 36.4856 86.5598 36.6098C86.9241 36.734 87.2809 36.8791 87.6286 37.0442C87.9682 37.2027 88.2817 37.412 88.5583 37.6649C88.8373 37.9258 89.0606 38.2403 89.215 38.5897C89.3911 39.0102 89.4757 39.4634 89.4632 39.9191C89.4673 40.4644 89.3683 41.0056 89.1715 41.5142C88.9845 42.0038 88.695 42.4477 88.3225 42.8163C87.9311 43.1958 87.4665 43.4914 86.957 43.6853C86.3647 43.9065 85.736 44.0143 85.1037 44.003C84.7061 44.0037 84.3094 43.9646 83.9195 43.8863C83.5375 43.8103 83.1635 43.6985 82.8024 43.5524C82.4523 43.4107 82.1165 43.2361 81.7994 43.0311C81.497 42.8368 81.2172 42.6095 80.9652 42.3533L81.6517 41.2361C81.7119 41.1532 81.7889 41.0839 81.8776 41.0326C81.9686 40.975 82.074 40.9445 82.1817 40.9444C82.3528 40.9541 82.5167 41.0165 82.6509 41.1232C82.8164 41.2415 83.0163 41.3731 83.2505 41.5179C83.5082 41.6757 83.7805 41.8083 84.0635 41.9139C84.4219 42.041 84.8005 42.1016 85.1807 42.0926C85.7344 42.1257 86.2813 41.9568 86.7199 41.6172C86.9066 41.4468 87.0529 41.237 87.1482 41.0029C87.2435 40.7689 87.2855 40.5165 87.2711 40.2642C87.2837 39.9743 87.196 39.6889 87.0228 39.4561C86.8436 39.2365 86.6198 39.0575 86.3662 38.931C86.0688 38.777 85.7564 38.6539 85.4339 38.5636C85.0864 38.4651 84.733 38.358 84.3739 38.2421C84.0122 38.1252 83.6581 37.9859 83.3138 37.825C82.9711 37.6661 82.657 37.4518 82.384 37.1907C82.1002 36.9133 81.8767 36.5803 81.7274 36.2125C81.5494 35.7514 81.465 35.2593 81.4791 34.7652C81.4803 34.3056 81.5741 33.8509 81.7547 33.4283C81.9377 32.9928 82.2081 32.5995 82.5491 32.2726C82.9206 31.9215 83.3576 31.6469 83.8351 31.4645C84.3956 31.2526 84.9913 31.1494 85.5903 31.1604C86.2891 31.1531 86.9836 31.2708 87.641 31.508C88.2346 31.7201 88.7787 32.0513 89.2398 32.4812L88.6576 33.5847ZM93.747 44.003C93.4205 44.0241 93.0932 43.9766 92.7862 43.8635C92.4792 43.7504 92.1993 43.5743 91.9645 43.3464C91.5279 42.8471 91.305 42.1962 91.3438 41.5341V36.5564H90.4302C90.3208 36.5589 90.2147 36.5183 90.1348 36.4434C90.0914 36.3989 90.0578 36.3457 90.0364 36.2873C90.015 36.2289 90.0063 36.1666 90.0107 36.1046V35.253L91.4444 35.0184L91.8962 32.5854C91.9205 32.4805 91.9795 32.3869 92.0638 32.3198C92.1543 32.2535 92.2645 32.2198 92.3766 32.2242H93.4938V35.0308H95.8746V36.5601H93.4888V41.3814C93.475 41.6164 93.5478 41.8483 93.6936 42.0331C93.7635 42.1115 93.8501 42.1732 93.947 42.2138C94.0438 42.2544 94.1486 42.2728 94.2535 42.2677C94.367 42.2709 94.4804 42.255 94.5886 42.2205C94.6691 42.1925 94.7475 42.1589 94.8232 42.12C94.8894 42.0852 94.949 42.0517 95.002 42.0194C95.0487 41.9894 95.1029 41.9731 95.1584 41.9722C95.2144 41.9699 95.2695 41.9865 95.3148 42.0194C95.3622 42.0614 95.404 42.1094 95.4389 42.1622L96.0819 43.2049C95.7636 43.4686 95.3979 43.6691 95.0045 43.7957C94.5998 43.9311 94.1762 44.0011 93.7495 44.003H93.747ZM99.2647 36.4956C99.5039 36.0118 99.8423 35.5838 100.258 35.2394C100.643 34.9344 101.122 34.7733 101.613 34.7838C101.964 34.766 102.312 34.8604 102.606 35.0532L102.465 36.6644C102.448 36.7496 102.404 36.8274 102.341 36.8866C102.276 36.9328 102.198 36.9556 102.118 36.9511C101.988 36.9466 101.859 36.9321 101.731 36.9077C101.567 36.8794 101.401 36.8649 101.235 36.8642C101.019 36.8606 100.804 36.8959 100.6 36.9685C100.418 37.0371 100.25 37.1385 100.104 37.2677C99.9503 37.4051 99.8184 37.565 99.7128 37.7418C99.5912 37.9449 99.4853 38.1569 99.3962 38.3762V43.864H97.2426V34.9489H98.5025C98.6649 34.9324 98.828 34.9737 98.963 35.0656C99.0672 35.1824 99.1285 35.3313 99.1368 35.4876L99.2647 36.4956ZM109.214 38.3811C109.216 38.1143 109.176 37.8489 109.097 37.5941C109.024 37.3569 108.904 37.1366 108.745 36.9462C108.582 36.7567 108.379 36.6068 108.15 36.508C107.885 36.3956 107.599 36.3407 107.311 36.3466C107.044 36.3317 106.776 36.371 106.524 36.462C106.273 36.5531 106.042 36.6942 105.846 36.8767C105.462 37.2904 105.222 37.8181 105.165 38.3799L109.214 38.3811ZM105.117 39.6758C105.143 40.0813 105.226 40.481 105.366 40.8625C105.477 41.1687 105.648 41.4494 105.87 41.688C106.078 41.9047 106.332 42.0712 106.614 42.1746C106.92 42.2852 107.242 42.3398 107.567 42.3359C107.871 42.3412 108.174 42.2993 108.465 42.2118C108.693 42.1408 108.914 42.0507 109.126 41.9425C109.313 41.844 109.479 41.7542 109.622 41.6731C109.747 41.596 109.889 41.5532 110.036 41.549C110.114 41.544 110.192 41.5599 110.262 41.595C110.333 41.6301 110.392 41.6832 110.435 41.7488L111.056 42.5308C110.826 42.8023 110.556 43.0378 110.256 43.2297C109.967 43.4153 109.656 43.5669 109.332 43.6815C109.013 43.794 108.684 43.8742 108.35 43.9211C108.027 43.9661 107.701 43.9885 107.374 43.9881C106.783 43.9955 106.196 43.8928 105.643 43.6853C105.118 43.4855 104.644 43.1741 104.252 42.7729C103.843 42.346 103.526 41.8388 103.323 41.2833C103.085 40.6215 102.97 39.922 102.984 39.219C102.981 38.6322 103.082 38.0496 103.284 37.4985C103.47 36.9804 103.758 36.5048 104.131 36.0996C104.509 35.695 104.968 35.3737 105.477 35.1562C106.045 34.9171 106.656 34.7988 107.271 34.8086C107.802 34.8031 108.329 34.8944 108.826 35.078C109.287 35.2484 109.705 35.517 110.052 35.865C110.405 36.2274 110.679 36.6594 110.856 37.1336C111.059 37.6828 111.158 38.265 111.148 38.8503C111.167 39.0744 111.131 39.2997 111.043 39.507C110.998 39.5679 110.937 39.6156 110.866 39.6452C110.796 39.6749 110.719 39.6854 110.644 39.6758H105.117ZM118.349 37.2255C118.138 36.9574 117.865 36.7445 117.554 36.6048C117.261 36.4797 116.946 36.4155 116.628 36.4161C116.326 36.4115 116.026 36.4738 115.751 36.5986C115.485 36.7243 115.255 36.9141 115.081 37.151C114.88 37.433 114.735 37.7518 114.656 38.0894C114.55 38.5287 114.501 38.9796 114.508 39.4313C114.5 39.8764 114.541 40.3211 114.632 40.757C114.697 41.0722 114.819 41.3727 114.993 41.6433C115.134 41.8593 115.333 42.0314 115.567 42.1398C115.805 42.244 116.063 42.296 116.323 42.2925C116.72 42.3046 117.114 42.2085 117.461 42.0144C117.801 41.8052 118.101 41.5375 118.347 41.2237L118.349 37.2255ZM120.495 30.9543V43.864H119.183C119.061 43.8752 118.939 43.8417 118.84 43.7698C118.741 43.6978 118.671 43.5924 118.644 43.473L118.462 42.6128C118.11 43.0148 117.69 43.3511 117.22 43.6058C116.719 43.8688 116.16 44.0003 115.594 43.9881C115.131 43.9953 114.672 43.8932 114.256 43.6902C113.845 43.481 113.489 43.1793 113.215 42.8089C112.899 42.3803 112.668 41.8959 112.532 41.3814C112.364 40.7465 112.283 40.0917 112.292 39.435C112.287 38.8108 112.378 38.1895 112.562 37.5929C112.725 37.0565 112.987 36.5554 113.335 36.1157C113.662 35.7058 114.074 35.372 114.543 35.1376C115.035 34.8979 115.577 34.7776 116.124 34.7863C116.562 34.7747 116.997 34.8547 117.401 35.0209C117.752 35.1753 118.072 35.39 118.349 35.6552V30.9543H120.495ZM127.322 40.0606C126.798 40.0793 126.275 40.1328 125.758 40.2207C125.408 40.2772 125.066 40.3782 124.741 40.5211C124.525 40.6124 124.336 40.7593 124.194 40.9469C124.086 41.1025 124.028 41.2875 124.029 41.477C124.014 41.6288 124.037 41.7819 124.096 41.9228C124.154 42.0637 124.246 42.1881 124.364 42.2851C124.62 42.4583 124.924 42.5452 125.233 42.5333C125.627 42.5431 126.019 42.4611 126.376 42.2937C126.73 42.1094 127.049 41.864 127.318 41.5688L127.322 40.0606ZM122.406 36.1914C123.412 35.2607 124.738 34.7561 126.108 34.7838C126.587 34.776 127.062 34.8634 127.507 35.0407C127.902 35.2004 128.258 35.4434 128.55 35.7533C128.839 36.0673 129.06 36.4386 129.196 36.8431C129.348 37.2907 129.424 37.7608 129.419 38.2334V43.864H128.445C128.284 43.8729 128.123 43.8417 127.976 43.7734C127.846 43.6858 127.753 43.5531 127.716 43.401L127.524 42.758C127.314 42.9483 127.094 43.1269 126.864 43.293C126.654 43.4436 126.43 43.5729 126.195 43.679C125.956 43.7857 125.706 43.8661 125.45 43.9186C125.164 43.9759 124.873 44.0038 124.581 44.0018C124.228 44.005 123.876 43.9535 123.539 43.8491C123.235 43.7557 122.954 43.6002 122.713 43.3923C122.478 43.1849 122.294 42.9262 122.174 42.6363C122.041 42.3023 121.976 41.9447 121.983 41.585C121.984 41.3556 122.022 41.1279 122.096 40.9109C122.179 40.6766 122.305 40.4602 122.469 40.2729C122.661 40.051 122.885 39.8578 123.133 39.6994C123.446 39.5005 123.783 39.3428 124.137 39.2302C124.589 39.0835 125.053 38.9743 125.523 38.9037C126.122 38.8138 126.726 38.7632 127.331 38.7523V38.2309C127.365 37.7589 127.227 37.2904 126.942 36.9126C126.801 36.7645 126.629 36.6491 126.438 36.5747C126.248 36.5003 126.043 36.4686 125.839 36.4819C125.544 36.4741 125.25 36.5161 124.97 36.606C124.761 36.6785 124.559 36.7704 124.366 36.8804L123.892 37.1535C123.748 37.2362 123.584 37.279 123.418 37.2776C123.281 37.2819 123.147 37.2409 123.036 37.1609C122.936 37.086 122.852 36.9929 122.788 36.8866L122.406 36.1914ZM133.454 36.4956C133.693 36.0118 134.032 35.5838 134.447 35.2394C134.833 34.9335 135.314 34.7724 135.806 34.7838C136.158 34.766 136.505 34.8604 136.799 35.0532L136.66 36.6669C136.643 36.7521 136.6 36.8298 136.536 36.8891C136.472 36.9353 136.393 36.9581 136.314 36.9536C136.184 36.9491 136.055 36.9346 135.927 36.9102C135.763 36.8819 135.597 36.8673 135.43 36.8667C135.214 36.8631 134.999 36.8984 134.796 36.971C134.614 37.0395 134.445 37.1409 134.299 37.2701C134.146 37.4076 134.014 37.5675 133.908 37.7443C133.786 37.9473 133.68 38.1594 133.591 38.3786V43.864H131.435V34.9489H132.694C132.857 34.9324 133.02 34.9737 133.155 35.0656C133.259 35.1824 133.32 35.3313 133.329 35.4876L133.454 36.4956Z" fill="#1D4D4F"/>
</svg>
