<svg width="0" height="0">
    <symbol xmlns="http://www.w3.org/2000/svg" viewBox="0 0 340 340" id="tree-stump">
        <g id="Layer_13">
            <path d="M122.794,313.962a3.483,3.483,0,0,0,1.938-.589c6.361-4.24,6.959-16.018,7.015-18.42V257.131a3.5,3.5,0,1,0-7,0v37.736c-.108,4.138-1.422,11.03-3.9,12.682a3.5,3.5,0,0,0,1.945,6.413Z"/>
            <path d="M128.247,246.342a3.5,3.5,0,0,0,3.5-3.5V242.1a3.5,3.5,0,1,0-7,0v.743A3.5,3.5,0,0,0,128.247,246.342Z"/>
            <path d="M128.247,231.31a3.5,3.5,0,0,0,3.5-3.5V195.825a3.5,3.5,0,1,0-7,0V227.81A3.5,3.5,0,0,0,128.247,231.31Z"/>
            <path d="M155.307,302.92a3.5,3.5,0,0,0,3.5-3.5V196.9a3.5,3.5,0,0,0-7,0V299.42A3.5,3.5,0,0,0,155.307,302.92Z"/>
            <path d="M187.225,242.824a3.5,3.5,0,0,0,3.5-3.5V196.159a3.5,3.5,0,0,0-7,0v43.165A3.5,3.5,0,0,0,187.225,242.824Z"/>
            <path d="M220.443,305.206a3.5,3.5,0,1,0,4.6-5.276c-14.76-12.87-13.924-37.711-13.913-37.956,0-.05,0-.1,0-.151v-66a3.5,3.5,0,0,0-7,0v65.929C204.058,263.752,203.414,290.358,220.443,305.206Z"/>
            <path d="M62.52,332.928a3.6,3.6,0,0,0,2.018.572H90.359a52.234,52.234,0,0,0,14.669-2c16.835-4.93,46.632-1.172,58.662.674a19.787,19.787,0,0,0,15.05-4.063,33.209,33.209,0,0,1,5.712-3.544,16.836,16.836,0,0,1,16.713,1.08c1.275.848,2.609,1.788,3.967,2.794a25.469,25.469,0,0,0,15.161,5.054h55.259a3.5,3.5,0,0,0,3.457-4.052c-1.337-8.378-11.361-12-12.489-12.384-25.872-8.847-32.313-36.771-32.366-37-3.85-18.818-6.325-78.593-6.991-96.465a10.421,10.421,0,0,0-10.451-10.061h-7.176c1.185-5.559,4.725-11.7,14.058-14.51,21.3-6.426,35.992-15.914,43.664-28.2a3.556,3.556,0,0,0,.121-3.628,3.507,3.507,0,0,0-4.88-1.272,36.673,36.673,0,0,1-5.629,2.625,31.234,31.234,0,0,1-14.147,1.7c-5.082-.5-14.962-.488-24.106,5.239A59.547,59.547,0,0,1,211.2,139.5a35.09,35.09,0,0,0-9.931,6.568c7.641-12.326,17.573-16.8,17.573-16.8,18.522-7.82,32.153-22.843,39.421-43.445a93.813,93.813,0,0,0,5.417-28.949,3.5,3.5,0,0,0-4.632-3.29c-24.177,8.266-39.092,27.741-47.381,42.6a57.3,57.3,0,0,1-17.117,18.807,3.475,3.475,0,1,0,4.091,5.618c7.732-5.794,15.12-13.788,19.143-21.023,7.082-12.736,19.365-29.078,38.566-37.454-1.312,13.049-7.839,47.007-40.235,60.685-1.159.491-27.775,12.237-30.31,50.718H159.6a95.733,95.733,0,0,0-6.009-23.289,3.546,3.546,0,0,0,.053-.36c.823-17.822,3.475-29.735,5.554-36.59a105.763,105.763,0,0,0,4.1-19.471c2.625-24.3,11.4-35.5,16.4-40.007a49.565,49.565,0,0,0,9.6-11.92c11.775-20.235,28.824-26.148,36.1-27.8,1.263,23.47-11.355,41.646-22.487,52.964a45,45,0,0,0-12.345,24.789,48.068,48.068,0,0,1-11.49,24.266,3.234,3.234,0,0,0-.322.37c-11.927,15.844-14.864,33.82-15.179,46.36a4.244,4.244,0,0,0,2.937,4.194c.062.019.116.035.165.047a3.159,3.159,0,0,0,3.875-3.062c.159-11.492,2.639-28.4,13.665-43.156a54.641,54.641,0,0,0,13.265-27.937,38.044,38.044,0,0,1,10.419-20.963C218.37,61.33,235.419,39.084,232.049,9.6a3.507,3.507,0,0,0-3.788-3.089c-1.139.1-28.112,2.822-45.01,31.862a42.612,42.612,0,0,1-8.24,10.244C168,54.946,159.07,67.794,156.34,93.071a98.9,98.9,0,0,1-3.841,18.191,142.293,142.293,0,0,0-5.037,27.072,59.12,59.12,0,0,0-4.753-6.413,44.889,44.889,0,0,1-9.271-18.174c-4.392-17.44-16.331-48.442-46.944-60.127a3.884,3.884,0,0,0-4.6,2.251c-.155.355-10.922,37.259,17.969,60.962a38.616,38.616,0,0,1,6.926,7.409,29.939,29.939,0,0,0-6.509-.724c-1.193-.117-2.381-.18-3.531-.189a37.6,37.6,0,0,1-10.38-1.433,25.725,25.725,0,0,1-6.7-2.823,3.5,3.5,0,0,0-5.371,3.983c.265.754,6.736,18.588,28.033,30.567,11.217,6.31,16.591,14.485,19.085,19.91h-8.152a10.521,10.521,0,0,0-10.457,10.3l-.177,11.935a10.512,10.512,0,0,1-4.328,8.347l-3.645,2.651a12.24,12.24,0,0,0-5.04,9.9v30.3a27.271,27.271,0,0,0,4.93,15.817c7.13,10.113,9.608,19.366,7.364,27.5-3.3,11.941-15.715,18.592-20.9,20.9-15.171,6.743-19.61,17.034-19.792,17.468A3.513,3.513,0,0,0,62.52,332.928Zm56.487-199.166a43.89,43.89,0,0,0-14.7-22.341c-20.372-16.714-18.343-40.478-16.6-49.694,24.936,11.592,35.072,38.349,38.945,53.729a51.945,51.945,0,0,0,10.739,21.015c10.347,12.1,13.926,28.222,15.149,37.062h-9.887a65.311,65.311,0,0,0-9.47-18.834,42.74,42.74,0,0,0-5.582-6.282A31.218,31.218,0,0,1,119.007,133.762ZM83.852,317.579c6.1-2.709,20.717-10.61,24.806-25.431a29.823,29.823,0,0,0,.971-10.178V195.844l.176-11.9a3.473,3.473,0,0,1,3.458-3.407H216.712a3.443,3.443,0,0,1,3.455,3.322c.861,23.08,3.28,78.792,7.138,97.649.284,1.3,7.276,32.037,36.95,42.183A18.819,18.819,0,0,1,269.3,326.5H241.931c-15.3,0-22.628-9.151-29.719-18-3.939-4.916-7.66-9.559-12.53-12.164a21.539,21.539,0,0,0-8.757-2.54V265.956a3.5,3.5,0,0,0-7,0v28.426a33.047,33.047,0,0,0-12.874,6.406,3.5,3.5,0,0,0,4.559,5.312c.433-.368,10.732-8.964,20.772-3.593,3.6,1.928,6.889,6.028,10.368,10.368,3.636,4.539,7.714,9.623,13.156,13.61a18.133,18.133,0,0,1-10.509-3.591c-1.486-1.105-2.953-2.138-4.359-3.072a23.854,23.854,0,0,0-23.684-1.528,40.28,40.28,0,0,0-6.915,4.3,12.6,12.6,0,0,1-9.688,2.667c-15.516-2.38-44.162-5.607-61.692-.473a45.187,45.187,0,0,1-12.7,1.713H71.076A37.487,37.487,0,0,1,83.852,317.579Z"/>
        </g>
    </symbol>
</svg>