<svg width="0" height="0">
    <symbol xmlns="http://www.w3.org/2000/svg" viewBox="0 0 340 340" id="tree-stump">
        <path d="M122.794,313.962a3.483,3.483,0,0,0,1.938-.589c6.361-4.24,6.959-16.018,7.015-18.42V257.131a3.5,3.5,0,1,0-7,0v37.736c-.108,4.138-1.422,11.03-3.9,12.682a3.5,3.5,0,0,0,1.945,6.413Z"/>
        <path d="M128.247,246.342a3.5,3.5,0,0,0,3.5-3.5V242.1a3.5,3.5,0,1,0-7,0v.743A3.5,3.5,0,0,0,128.247,246.342Z"/>
        <path d="M128.247,231.31a3.5,3.5,0,0,0,3.5-3.5V195.825a3.5,3.5,0,1,0-7,0V227.81A3.5,3.5,0,0,0,128.247,231.31Z"/>
        <path d="M155.307,302.92a3.5,3.5,0,0,0,3.5-3.5V196.9a3.5,3.5,0,0,0-7,0V299.42A3.5,3.5,0,0,0,155.307,302.92Z"/>
        <path d="M187.225,242.824a3.5,3.5,0,0,0,3.5-3.5V196.159a3.5,3.5,0,0,0-7,0v43.165A3.5,3.5,0,0,0,187.225,242.824Z"/>
        <path d="M220.443,305.206a3.5,3.5,0,1,0,4.6-5.276c-14.76-12.87-13.924-37.711-13.913-37.956,0-.05,0-.1,0-.151v-66a3.5,3.5,0,0,0-7,0v65.929C204.058,263.752,203.414,290.358,220.443,305.206Z"/>
        <path d="M62.52,332.928a3.6,3.6,0,0,0,2.018.572H90.359a52.234,52.234,0,0,0,14.669-2c16.835-4.93,46.632-1.172,58.662.674a19.787,19.787,0,0,0,15.05-4.063,33.209,33.209,0,0,1,5.712-3.544,16.836,16.836,0,0,1,16.713,1.08c1.275.848,2.609,1.788,3.967,2.794a25.469,25.469,0,0,0,15.161,5.054h55.259a3.5,3.5,0,0,0,3.457-4.052c-1.337-8.378-11.361-12-12.489-12.384-25.872-8.847-32.313-36.771-32.366-37-3.85-18.818-6.325-78.593-6.991-96.465a10.421,10.421,0,0,0-10.451-10.061h-7.176c1.185-5.559,4.725-11.7,14.058-14.51,21.3-6.426,35.992-15.914,43.664-28.2a3.556,3.556,0,0,0,.121-3.628,3.507,3.507,0,0,0-4.88-1.272,36.673,36.673,0,0,1-5.629,2.625,31.234,31.234,0,0,1-14.147,1.7c-5.082-.5-14.962-.488-24.106,5.239A59.547,59.547,0,0,1,211.2,139.5a35.09,35.09,0,0,0-9.931,6.568c7.641-12.326,17.573-16.8,17.573-16.8,18.522-7.82,32.153-22.843,39.421-43.445a93.813,93.813,0,0,0,5.417-28.949,3.5,3.5,0,0,0-4.632-3.29c-24.177,8.266-39.092,27.741-47.381,42.6a57.3,57.3,0,0,1-17.117,18.807,3.475,3.475,0,1,0,4.091,5.618c7.732-5.794,15.12-13.788,19.143-21.023,7.082-12.736,19.365-29.078,38.566-37.454-1.312,13.049-7.839,47.007-40.235,60.685-1.159.491-27.775,12.237-30.31,50.718H159.6a95.733,95.733,0,0,0-6.009-23.289,3.546,3.546,0,0,0,.053-.36c.823-17.822,3.475-29.735,5.554-36.59a105.763,105.763,0,0,0,4.1-19.471c2.625-24.3,11.4-35.5,16.4-40.007a49.565,49.565,0,0,0,9.6-11.92c11.775-20.235,28.824-26.148,36.1-27.8,1.263,23.47-11.355,41.646-22.487,52.964a45,45,0,0,0-12.345,24.789,48.068,48.068,0,0,1-11.49,24.266,3.234,3.234,0,0,0-.322.37c-11.927,15.844-14.864,33.82-15.179,46.36a4.244,4.244,0,0,0,2.937,4.194c.062.019.116.035.165.047a3.159,3.159,0,0,0,3.875-3.062c.159-11.492,2.639-28.4,13.665-43.156a54.641,54.641,0,0,0,13.265-27.937,38.044,38.044,0,0,1,10.419-20.963C218.37,61.33,235.419,39.084,232.049,9.6a3.507,3.507,0,0,0-3.788-3.089c-1.139.1-28.112,2.822-45.01,31.862a42.612,42.612,0,0,1-8.24,10.244C168,54.946,159.07,67.794,156.34,93.071a98.9,98.9,0,0,1-3.841,18.191,142.293,142.293,0,0,0-5.037,27.072,59.12,59.12,0,0,0-4.753-6.413,44.889,44.889,0,0,1-9.271-18.174c-4.392-17.44-16.331-48.442-46.944-60.127a3.884,3.884,0,0,0-4.6,2.251c-.155.355-10.922,37.259,17.969,60.962a38.616,38.616,0,0,1,6.926,7.409,29.939,29.939,0,0,0-6.509-.724c-1.193-.117-2.381-.18-3.531-.189a37.6,37.6,0,0,1-10.38-1.433,25.725,25.725,0,0,1-6.7-2.823,3.5,3.5,0,0,0-5.371,3.983c.265.754,6.736,18.588,28.033,30.567,11.217,6.31,16.591,14.485,19.085,19.91h-8.152a10.521,10.521,0,0,0-10.457,10.3l-.177,11.935a10.512,10.512,0,0,1-4.328,8.347l-3.645,2.651a12.24,12.24,0,0,0-5.04,9.9v30.3a27.271,27.271,0,0,0,4.93,15.817c7.13,10.113,9.608,19.366,7.364,27.5-3.3,11.941-15.715,18.592-20.9,20.9-15.171,6.743-19.61,17.034-19.792,17.468A3.513,3.513,0,0,0,62.52,332.928Zm56.487-199.166a43.89,43.89,0,0,0-14.7-22.341c-20.372-16.714-18.343-40.478-16.6-49.694,24.936,11.592,35.072,38.349,38.945,53.729a51.945,51.945,0,0,0,10.739,21.015c10.347,12.1,13.926,28.222,15.149,37.062h-9.887a65.311,65.311,0,0,0-9.47-18.834,42.74,42.74,0,0,0-5.582-6.282A31.218,31.218,0,0,1,119.007,133.762ZM83.852,317.579c6.1-2.709,20.717-10.61,24.806-25.431a29.823,29.823,0,0,0,.971-10.178V195.844l.176-11.9a3.473,3.473,0,0,1,3.458-3.407H216.712a3.443,3.443,0,0,1,3.455,3.322c.861,23.08,3.28,78.792,7.138,97.649.284,1.3,7.276,32.037,36.95,42.183A18.819,18.819,0,0,1,269.3,326.5H241.931c-15.3,0-22.628-9.151-29.719-18-3.939-4.916-7.66-9.559-12.53-12.164a21.539,21.539,0,0,0-8.757-2.54V265.956a3.5,3.5,0,0,0-7,0v28.426a33.047,33.047,0,0,0-12.874,6.406,3.5,3.5,0,0,0,4.559,5.312c.433-.368,10.732-8.964,20.772-3.593,3.6,1.928,6.889,6.028,10.368,10.368,3.636,4.539,7.714,9.623,13.156,13.61a18.133,18.133,0,0,1-10.509-3.591c-1.486-1.105-2.953-2.138-4.359-3.072a23.854,23.854,0,0,0-23.684-1.528,40.28,40.28,0,0,0-6.915,4.3,12.6,12.6,0,0,1-9.688,2.667c-15.516-2.38-44.162-5.607-61.692-.473a45.187,45.187,0,0,1-12.7,1.713H71.076A37.487,37.487,0,0,1,83.852,317.579Z"/>
    </symbol>
    <symbol xmlns="http://www.w3.org/2000/svg" viewBox="0 0 340 340" id="spray">
        <path d="M236.66,7.655c-39.342-5.8-75.48-.483-107.4,15.8-24.27,12.38-39.186,27.784-45.122,34.71-3.144-.217-6.352-.34-9.6-.341a3.514,3.514,0,0,0-3.44,2.741L68.865,70.622a3.5,3.5,0,0,0,2.894,4.22c.362.054,35.92,5.616,55.493,23.6-.018,1.744-.025,3.4-.023,4.92h0l.192,11.756c-.2,29.2-16.705,49.346-26.529,58.759a58.2,58.2,0,0,0-17.271,34.143c-4.19,31.011-3.415,64.765-2.027,87.62a41.555,41.555,0,0,0,41.421,38.981h64.294a41.554,41.554,0,0,0,41.419-38.981c1.388-22.858,2.163-56.614-2.026-87.62a58.2,58.2,0,0,0-17.271-34.143c-10.373-9.938-24.4-26.843-26.525-58.8.009-.244.024-.679.041-1.284a8.683,8.683,0,0,1,8.674-8.431H207.35a11.535,11.535,0,0,1,8.37,3.528,14.786,14.786,0,0,1,4.055,8.008c8.327,47.4,42.772,54.8,44.235,55.088a3.559,3.559,0,0,0,.685.068,3.5,3.5,0,0,0,3.193-2.067l2.149-4.788a13.745,13.745,0,0,0-3.992-16.291c-27.981-22.588-26.983-64.65-25.254-81.686A16.865,16.865,0,0,0,230.522,49.9l-.833-.352c4.467-1.826,7.354-2.708,7.456-2.739a3.5,3.5,0,0,0,2.5-3.355v-.492h.224a15.539,15.539,0,0,0,15.67-14.479,15.263,15.263,0,0,0-15.228-16.015h-.666V11.117A3.5,3.5,0,0,0,236.66,7.655Zm-121.615,55.6a80.614,80.614,0,0,1,19.387-8.034,26.046,26.046,0,0,0-5.422,12.174C125.641,66.241,120.851,64.732,115.045,63.253Zm89.544,115.675a51.168,51.168,0,0,1,15.176,30.025c4.113,30.446,3.345,63.713,1.977,86.259a34.544,34.544,0,0,1-34.433,32.405h-45.8C118.963,323.8,111.6,307.045,106.08,291.4s0-69.14,0-69.14c0-21.748,14.263-38.525,14.263-38.525,15.247-15.772,20.43-36.8,22.073-51.929a10.9,10.9,0,0,1,7.712-9.266,107.793,107.793,0,0,1,26-4.323C179.006,150.88,193.669,168.465,204.589,178.928Zm-61.7-68.585V74.68c0-20.256,11.839-22.184,11.839-22.184h.869a19.06,19.06,0,0,1,18.952,17.061c1.732,15.976,1.615,33.895,1.459,41.59a179.874,179.874,0,0,0-20.846-1.241C150.664,109.906,146.488,110.092,142.888,110.343Zm61.773-30.261-6.591-2.64-6.777-2.713A93.4,93.4,0,0,1,208.1,60.84Zm26.252-21.661a9.887,9.887,0,0,1,2.913,8.087c-1.843,18.169-2.82,63.1,27.822,87.838a6.74,6.74,0,0,1,2,7.978l-.914,2.036c-7.727-2.605-29.807-13.057-36.066-48.681a21.744,21.744,0,0,0-6.015-11.761,18.683,18.683,0,0,0-9.805-5.235l3.241-31.576A128.853,128.853,0,0,1,230.913,58.421Zm1.737-17.512c-8.158,2.812-33.989,12.984-50.588,33.771-.161-1.968-.344-3.933-.555-5.878C180.067,55.516,170,46.458,155.6,45.5c-12.708-.482-26.262,3.52-38.1,8.668a13.039,13.039,0,0,1-5.811,1.079A21.087,21.087,0,0,1,100.3,51.705a149.886,149.886,0,0,1,32.138-22.014c29.791-15.2,63.492-20.418,100.209-15.53Zm7.666-21.446a8.247,8.247,0,0,1,0,16.494h-.666V19.463Z"/>
    </symbol>
    <symbol xmlns="http://www.w3.org/2000/svg" viewBox="0 0 340 340" id="flower">
        <path d="M62.91,62.6a16.84,16.84,0,0,0-4.258,12.466A51.164,51.164,0,0,0,67.6,100.624a17.009,17.009,0,0,0,14.017,7.354,17.3,17.3,0,0,0,7.474-1.706q3.048-1.458,5.836-3.153-.024,2.432.137,4.982a12.841,12.841,0,0,0,14.427,11.865,84.922,84.922,0,0,0,18.25-4.4,264.163,264.163,0,0,1,18.5,36.825,96.209,96.209,0,0,0-16.55-4.663,3.5,3.5,0,0,0-4.061,4.226c.1.438,2.044,8.562,9.3,20.16-13.382-6.1-34.933-14.858-51.416-16.5a3.5,3.5,0,0,0-3.441,5.119c.567,1.072,12.522,23.317,35.081,38.672h-8.976a3.5,3.5,0,0,0-3.421,4.241l23.441,108.257A13.641,13.641,0,0,0,139.449,322.6h73.592a13.633,13.633,0,0,0,13.428-11.641l15.412-107.554a3.5,3.5,0,0,0-.441-2.243c23.724-12.4,35.445-34.4,36-35.464a3.5,3.5,0,0,0-4.843-4.656c-12.277,7.038-31.9,9.644-42.8,10.58a22.3,22.3,0,0,0,2.718-16.45,3.5,3.5,0,0,0-3.813-2.51,61.907,61.907,0,0,0-23.411,8.25,220.359,220.359,0,0,1,6.063-41.072,14.157,14.157,0,0,0,7.679,2.285c.154,0,.308,0,.462-.008,9.087-.3,22.706-2.035,35.99-8.571a13.87,13.87,0,0,0,7.207-8.488,14.267,14.267,0,0,0-1.274-11.231c-1.027-1.789-2.3-3.831-3.847-6a50.778,50.778,0,0,0,8.189.845c.119,0,.238,0,.356,0a15.156,15.156,0,0,0,15.048-13.93c1.472-17.845-4.46-30.731-9.7-38.4a15.231,15.231,0,0,0-10.3-6.454,15.018,15.018,0,0,0-10.393,2.269,17.283,17.283,0,0,0-2.63-6.964,17,17,0,0,0-15.025-7.787,103.307,103.307,0,0,0-34.734,7.022A17.264,17.264,0,0,0,189.5,48.3c-.773-.066-1.543-.127-2.3-.162a18.948,18.948,0,0,0-13.894,5.1,18.632,18.632,0,0,0-5.977,13.293,57.571,57.571,0,0,0,7.334,29.562,18.831,18.831,0,0,0,16.452,9.632,19.145,19.145,0,0,0,2.7-.211c-9.044,20.732-14.373,43.564-15.892,68.063a84.125,84.125,0,0,0-22.584-17.089,268,268,0,0,0-16.323-35.37l8.28-.632c5.285,8.932,10.305,19.861,15.934,34.377a3.5,3.5,0,1,0,6.526-2.53c-8.532-22.006-15.9-36.324-24.7-47.649a12.939,12.939,0,0,0-.806-13.649c-.9-1.28-1.992-2.714-3.255-4.227.974.067,1.959.111,2.966.111q1.655,0,3.368-.12a13.774,13.774,0,0,0,12.763-13.91c-.176-15.91-6.5-26.822-11.767-33.175a13.842,13.842,0,0,0-9.869-4.967,13.6,13.6,0,0,0-8.711,2.566,15.7,15.7,0,0,0-2.808-5.462,15.377,15.377,0,0,0-14.211-5.753,91.507,91.507,0,0,0-30.053,9.065A15.638,15.638,0,0,0,76.3,56.812c-.442.009-.892.009-1.326.03A17.09,17.09,0,0,0,62.91,62.6ZM219.54,309.969a6.6,6.6,0,0,1-6.5,5.634H155.01l-11.053-93.66-1.833-15.532h92.255ZM256,103.019a6.937,6.937,0,0,1-3.6,4.249c-12.166,5.987-24.732,7.577-33.132,7.856a7.017,7.017,0,0,1-5.253-2.075,6.934,6.934,0,0,1-2.067-5.161c.394-13.255,4.058-21.2,7.511-25.783a29.415,29.415,0,0,0,8.071,1.1,26.985,26.985,0,0,0,13.359-3.3,65.5,65.5,0,0,1,14.465,17.411A7.149,7.149,0,0,1,256,103.019ZM213.511,68.393c0-3.7,5.755-7.813,14.012-7.813s14.011,4.118,14.011,7.813-5.754,7.812-14.011,7.812S213.511,72.088,213.511,68.393ZM180.766,92.654a49.875,49.875,0,0,1-6.436-25.967,11.683,11.683,0,0,1,3.753-8.335,12.007,12.007,0,0,1,8.794-3.226,63.455,63.455,0,0,1,10.685,1.484c.122.026.243.028.364.042,1.691,1.182,3.4,2.321,5.108,3.395a3.5,3.5,0,1,0,3.721-5.929c-2.7-1.7-5.409-3.557-8.037-5.524a10.22,10.22,0,0,1,2.29-17.672,96.359,96.359,0,0,1,32.384-6.517,10.044,10.044,0,0,1,8.883,4.608,10.171,10.171,0,0,1,.609,10.116c-1.185,2.412-2.536,4.942-4.017,7.519a3.5,3.5,0,0,0,6.07,3.487c1.29-2.247,2.483-4.459,3.569-6.6a3.525,3.525,0,0,0,.435-.379,49.26,49.26,0,0,1,5.048-4.694,7.88,7.88,0,0,1,6.145-1.643,8.205,8.205,0,0,1,5.552,3.477c4.6,6.733,9.8,18.074,8.5,33.876a8.165,8.165,0,0,1-8.263,7.5,36.431,36.431,0,0,1-16.062-3.751,3.454,3.454,0,0,0-1.1-.343q-1.221-1.174-2.549-2.326a11.584,11.584,0,0,0,2.327-6.859c0-8.306-9.229-14.813-21.011-14.813s-21.012,6.507-21.012,14.813c0,4.28,2.463,8.073,6.451,10.753a43.039,43.039,0,0,0-5.849,13.091,63.79,63.79,0,0,1-11.767,5.722A11.918,11.918,0,0,1,180.766,92.654Zm14.107,29.524,8.871-.581a237.716,237.716,0,0,0-5.723,44.133,94.7,94.7,0,0,0-7.577,6.264,3.625,3.625,0,0,0-.455,4.929,3.5,3.5,0,0,0,5.065.341c9.969-9.175,20.383-14.9,31.007-17.068-.078,3.083-1.158,7.984-6.211,12.6l-3.9,2.262a3.617,3.617,0,0,0-1.507,4.723A3.5,3.5,0,0,0,219.3,181.2l1.046-.606a12.331,12.331,0,0,1,5.452-1.645c7.436-.443,24.439-1.95,38.976-6.877-6.812,8.789-18.989,21.271-36.42,27.078a3.531,3.531,0,0,0-.577.258H194.606a81.316,81.316,0,0,0-10.045-17.87A202.254,202.254,0,0,1,194.873,122.178Zm-7.864,77.233H128.924c-.04-.022-.073-.051-.114-.072-19.359-9.625-32.58-26.5-38.691-35.614,22.321,4.562,50.786,18.951,53.726,20.456l9.383,7.208a3.5,3.5,0,0,0,4.264-5.551L148.2,178.7a94.429,94.429,0,0,1-13.812-22.75C168.15,164.679,182.4,189.167,187.009,199.411ZM128.715,48.593a43.683,43.683,0,0,1,4.411-5.03,6.523,6.523,0,0,1,4.95-1.832,6.816,6.816,0,0,1,4.863,2.448c4.549,5.481,10,14.924,10.155,28.782a6.766,6.766,0,0,1-6.253,6.85,31.322,31.322,0,0,1-14.719-2.149,3.5,3.5,0,0,0-.75-.224q-.882-.69-1.816-1.364a10.587,10.587,0,0,0,1.367-6.117h0c-.358-3.821-2.92-7.239-7.029-9.38-.169-.087-.349-.16-.521-.243C125.043,57.066,126.971,52.989,128.715,48.593Zm-7.287,26.386a18.4,18.4,0,0,1-17.961,1.683c-1.961-1.021-3.161-2.415-3.293-3.824s.788-3,2.526-4.368a17.057,17.057,0,0,1,8.76-3.193c.631-.059,1.26-.088,1.883-.088a16.141,16.141,0,0,1,7.317,1.6c1.961,1.021,3.161,2.415,3.293,3.823h0C124.085,72.019,123.165,73.612,121.428,74.979Zm-35.536-33.6a84.554,84.554,0,0,1,27.76-8.343,8.454,8.454,0,0,1,7.8,3.161,8.563,8.563,0,0,1,1.3,8.428A130.26,130.26,0,0,1,116.5,58.384a26.734,26.734,0,0,0-5.693-.077A23.857,23.857,0,0,0,98.369,62.97c-.03.024-.055.05-.085.074a100.662,100.662,0,0,1-12.923-6.686,8.6,8.6,0,0,1,.531-14.983Zm-.9,22.911c.021,0,.041,0,.062,0,2.932,1.66,5.893,3.161,8.858,4.492a10.272,10.272,0,0,0-.707,4.711c.358,3.821,2.92,7.239,7.029,9.379a22.942,22.942,0,0,0,10.525,2.392q1.27,0,2.562-.121a24.424,24.424,0,0,0,11.384-3.9,57.575,57.575,0,0,1,13.829,13.829,5.9,5.9,0,0,1,.971,4.633,5.705,5.705,0,0,1-2.624,3.757,72.242,72.242,0,0,1-28.278,9.565,5.8,5.8,0,0,1-4.468-1.3,5.7,5.7,0,0,1-2.09-4.067,47.229,47.229,0,0,1,1.517-16.382,3.5,3.5,0,1,0-6.71-1.994,43.621,43.621,0,0,0-1.125,4.839,56.038,56.038,0,0,1-9.659,5.837,10.1,10.1,0,0,1-12.719-3.319,43.578,43.578,0,0,1-7.715-22.063,9.9,9.9,0,0,1,2.507-7.323,10.147,10.147,0,0,1,7.165-3.417A56.234,56.234,0,0,1,84.992,64.286Z"/>
    </symbol>
    <symbol xmlns="http://www.w3.org/2000/svg" viewBox="0 0 340 340" id="sprinkler-grass">
        <path d="M330.292,272.174c-12.662.551-23,7.053-29.918,13.051,3.888-25.887-8.249-46.232-8.853-47.223a3.5,3.5,0,0,0-6.48,1.579c-1.353,19.526-13.1,34.537-21.258,42.721a28.2,28.2,0,0,0-2.74-12.079,3.5,3.5,0,0,0-4.428-1.615,58.251,58.251,0,0,0-12.536,7.145,39.1,39.1,0,0,0-4.445-19.428,3.442,3.442,0,0,0-3.113-1.789,3.5,3.5,0,0,0-3.051,1.894c-.054.1-5.518,10.471-16.722,13.1a70.335,70.335,0,0,0-14.284,4.911c4.007-13.287,2.1-27.537,1.993-28.33a3.5,3.5,0,0,0-5.9-2.03,52.529,52.529,0,0,1-11.5,8.246V217.6h4.915c.05,0,.1-.013.146-.015s.095.015.145.015c9.812,0,15.012-4.534,17.647-8.337a12.015,12.015,0,0,1,9.786-5.323h13.4a15.718,15.718,0,0,0,13.544,7.777h28A15.739,15.739,0,0,0,290.362,196V177a10.509,10.509,0,0,0-10.5-10.5H241.417a10.508,10.508,0,0,0-10.5,10.44H203.951a12,12,0,0,0-11.981-11.908H149.859a12,12,0,0,0-11.982,11.908H111.2A10.507,10.507,0,0,0,100.7,166.5H62.255a10.509,10.509,0,0,0-10.5,10.5v19a15.74,15.74,0,0,0,15.722,15.722h28a15.715,15.715,0,0,0,13.543-7.777h13.4a12.013,12.013,0,0,1,9.786,5.323c2.634,3.8,7.834,8.337,17.647,8.337h3.975v36.656a3.5,3.5,0,1,0,7,0V228.635l19.221,3.817v23.229q-3.335,1.407-7.03,2.651c-15.918,5.334-25.743,14.3-31.6,21.968a44.307,44.307,0,0,0-2.262-12.1,3.5,3.5,0,0,0-4.035-2.158A54.307,54.307,0,0,0,115.84,274.4a72.687,72.687,0,0,0-2.274-32.024,3.5,3.5,0,0,0-2.929-2.393,3.443,3.443,0,0,0-3.363,1.663c-.036.056-3.865,5.826-21.853,18.759-11.011,7.918-14.929,17.564-16.139,25.061-20.154-25.643-50.376-34.132-51.8-34.518a3.518,3.518,0,0,0-4.049,1.738,3.463,3.463,0,0,0,.837,4.284c.049.044,4.928,4.574,7.616,18.72a59.725,59.725,0,0,0,6.319,17.73c-12.369-2.261-19.8,1.226-20.179,1.409a3.5,3.5,0,0,0-.05,6.276c9.662,4.874,14.894,14.3,17.582,21.35A17.25,17.25,0,0,0,41.593,333.5a3.5,3.5,0,1,0,0-7,10.213,10.213,0,0,1-9.49-6.542c-2.4-6.3-6.6-14.264-13.711-20.285A42.043,42.043,0,0,1,35.158,302.6c1.412.822,4.706,3.07,5.95,5.381a3.5,3.5,0,1,0,6.164-3.319c-2.17-4.03-6.773-7.031-8.4-8-1.366-1.556-7.626-9.255-10.1-22.277a64.775,64.775,0,0,0-3.875-13.271c11.953,5.116,32.675,16.5,44.889,37.511a3.5,3.5,0,0,0,6.438-2.541c-.162-.718-3.756-17.738,13.289-29.994a169.135,169.135,0,0,0,18.919-15.313c1.44,7.6,2.682,21-2.675,33.34-.733.962-2.849,3.7-4.406,5.388a3.5,3.5,0,0,0,5.143,4.75c2.139-2.316,5-6.119,5.123-6.279.021-.028.033-.06.054-.089s.044-.05.064-.078c.068-.1,6.64-9.671,21.722-14.1a53.728,53.728,0,0,1,.12,21.09,3.5,3.5,0,0,0,6.79,1.655c.279-.9,7.145-22.183,34.888-31.48A82.6,82.6,0,0,0,197.967,253.7c.168,7.763-.7,20.605-7.245,28.811-1.3,1.438-12.549,14-16.659,24.4a3.5,3.5,0,1,0,6.511,2.572c3.795-9.607,15.307-22.246,15.423-22.372.013-.014.021-.031.033-.045s.024-.02.035-.032c.06-.068,6.238-6.931,22.281-10.695a32.932,32.932,0,0,0,17.4-11.032c1.566,5.216,2.649,13.207-1.975,20.055l-4.4,5.154a3.5,3.5,0,0,0,5.33,4.539l4.542-5.326-.007-.007c.024-.028.054-.049.077-.078A55.962,55.962,0,0,1,256,276.58a19.061,19.061,0,0,1-1.054,13.665,35.573,35.573,0,0,1-5.69,5.868,3.5,3.5,0,0,0,4.283,5.538,42.3,42.3,0,0,0,6.882-7.043c3.364-2.494,23.091-17.985,29.642-42.723,3.514,10.148,6.8,26.7.287,44.405a3.5,3.5,0,0,0,6.134,3.239c.128-.177,11.912-16.4,29.237-19.778-2.31,8.223-7.407,25.033-13.624,37.316a17.08,17.08,0,0,1-15.3,9.433,3.5,3.5,0,0,0,0,7,24.048,24.048,0,0,0,21.545-13.271c8.849-17.481,15.233-42.641,15.5-43.7a3.5,3.5,0,0,0-3.546-4.352ZM241.417,173.5h38.448a3.5,3.5,0,0,1,3.5,3.5v12.112c0,8.2-7.243,8.809-7.243,8.809H245.625c-6.4,0-7.513-5.6-7.706-7.866V177A3.5,3.5,0,0,1,241.417,173.5ZM58.757,177a3.5,3.5,0,0,1,3.5-3.5H100.7a3.5,3.5,0,0,1,3.5,3.5v12.112c0,8.2-7.2,8.809-7.2,8.809H66.5c-7.413,0-7.739-7.524-7.747-8.655Zm91.1,33.6c-5.445,0-9.446-1.791-11.892-5.323a19.014,19.014,0,0,0-15.541-8.337h-1.358v-13h16.806v5.169a3.5,3.5,0,0,0,7,0V177.017a4.991,4.991,0,0,1,4.985-4.985H191.97a4.991,4.991,0,0,1,4.985,4.985v12.964a3.5,3.5,0,0,0,7,0V183.94h16.759v13h-1.02a19.012,19.012,0,0,0-15.54,8.337c-2.447,3.532-6.448,5.323-11.893,5.323-.05,0-.1.012-.145.014s-.1-.014-.146-.014Z"/>
        <path d="M229.489,138.346a3.5,3.5,0,0,0-5.965,3.662,75.63,75.63,0,0,1,7.565,16.224,3.5,3.5,0,1,0,6.661-2.155A82.659,82.659,0,0,0,229.489,138.346Z"/>
        <path d="M216.116,126.155c-3.183,2.4.116,5.628.116,5.628a3.988,3.988,0,0,0,4.924.5,3.409,3.409,0,0,0,.5-4.924S219,123.976,216.116,126.155Z"/>
        <path d="M206.282,121.075a3.5,3.5,0,0,0,4.833-5.064,163.546,163.546,0,0,0-20.334-16.363,184.43,184.43,0,0,0-45.847-22.507,284.345,284.345,0,0,1-36.219-14.987,3.5,3.5,0,0,0-3.118,6.268A291.319,291.319,0,0,0,142.71,83.778a177.422,177.422,0,0,1,44.11,21.641A156.433,156.433,0,0,1,206.282,121.075Z"/>
        <path d="M93.5,58.044a3.5,3.5,0,0,0-1.256-4.788q-.949-.555-1.883-1.111a3.5,3.5,0,0,0-3.584,6.013,16.362,16.362,0,0,0,3.7,1.62A3.5,3.5,0,0,0,93.5,58.044Z"/>
        <path d="M70.8,47.906c.689.477,3.377,2.034,4.052,2.034a3.5,3.5,0,0,0,1.964-6.4q-1.03-.7-2.038-1.393A3.5,3.5,0,1,0,70.8,47.906Z"/>
        <path d="M59.135,34.972a3.5,3.5,0,0,0-.508-4.924q-.882-.717-1.731-1.421a3.5,3.5,0,0,0-4.462,5.4c.581.48,3.207,2.242,3.983,2.242A3.5,3.5,0,0,0,59.135,34.972Z"/>
        <path d="M35.114,7.778a3.5,3.5,0,0,0-5.408,4.444c.047.057,1.186,1.44,3.41,3.817a3.745,3.745,0,0,0,4.947.165,3.4,3.4,0,0,0,.165-4.946C36.189,9.078,35.136,7.8,35.114,7.778Z"/>
        <path d="M247.5,140.056a3.5,3.5,0,0,0-2.327,4.369,73.522,73.522,0,0,1,2.743,13.124,3.5,3.5,0,0,0,3.473,3.1,3.386,3.386,0,0,0,.4-.022,3.5,3.5,0,0,0,3.082-3.872,80.553,80.553,0,0,0-3-14.378A3.5,3.5,0,0,0,247.5,140.056Z"/>
        <path d="M240.92,129.293a3.5,3.5,0,0,0,2.011-.637,3.611,3.611,0,0,0,.962-4.712c-19.607-34.859-49.411-51.711-76.346-65.961a3.6,3.6,0,0,0-3.511,6.284c4.64,2.753,9.593,5.387,14.795,7.863,1.612.856,40.083,21.591,59.033,55.374A3.5,3.5,0,0,0,240.92,129.293Z"/>
        <path d="M149.854,53.815a3.441,3.441,0,0,0,2.742-1.323c1.963-2.552.181-4.415-1.453-5.634a3.552,3.552,0,0,0-4.923.511,3.5,3.5,0,0,0,.512,4.924A9.5,9.5,0,0,0,149.854,53.815Z"/>
        <path d="M141.033,42.374c2.652-2.786-.457-5.49-.457-5.49a3.5,3.5,0,1,0-5.049,4.85s2.153,1.632,3.065,1.632A3.338,3.338,0,0,0,141.033,42.374Z"/>
        <path d="M129.138,31.619a3.5,3.5,0,0,0,2.932-5.406l-.381-.593a3.5,3.5,0,0,0-5.909,3.752l.42.654A3.5,3.5,0,0,0,129.138,31.619Z"/>
        <path d="M122.06,14.066c3.456-.633,2.732-4.453,2.726-4.5a3.5,3.5,0,0,0-6.949.849S118.039,14.8,122.06,14.066Z"/>
        <path d="M265.686,160.639c.112.011.224.015.336.015a3.5,3.5,0,0,0,3.48-3.167,154.7,154.7,0,0,0-5.325-57.854,118.056,118.056,0,0,0-16.605-34.484,3.5,3.5,0,0,0-5.752,3.99,111.083,111.083,0,0,1,15.633,32.437,147.764,147.764,0,0,1,5.08,55.246A3.5,3.5,0,0,0,265.686,160.639Z"/>
        <path d="M230.554,51.583a3.419,3.419,0,0,0,1.91-.569c3.1-2.079.721-5.3.721-5.3-1.055-1.619-3.387-2.3-4.842-1.024A3.792,3.792,0,0,0,227.62,50,3.5,3.5,0,0,0,230.554,51.583Z"/>
        <path d="M218.585,33.8c.594,1.272,3.044,2.577,4.653,1.688a3.59,3.59,0,0,0,1.687-4.653s-1.754-3.76-4.883-2.242C216.3,30.407,218.585,33.8,218.585,33.8Z"/>
        <path d="M217.619,9.436a3.5,3.5,0,0,0-6.909,1.124,75.141,75.141,0,0,0,2.863,10.718,3.5,3.5,0,0,0,6.639-2.216A70.473,70.473,0,0,1,217.619,9.436Z"/>
        <path d="M280.062,160.578a3.5,3.5,0,0,0,4.151-2.7c8.343-39.3,10.06-76.02,5.1-109.149a3.5,3.5,0,1,0-6.922,1.035c3.321,22.206,5.146,58.735-5.03,106.661A3.5,3.5,0,0,0,280.062,160.578Z"/>
        <path d="M279.582,34.756s.787,4.2,4.327,3.27c3.91-1.03,2.5-4.825,2.5-4.825a3.5,3.5,0,0,0-6.825,1.555Z"/>
        <path d="M280.576,13.408a3.5,3.5,0,0,0-6.547,2.479c.363.958.766,2.067,1.2,3.326a3.3,3.3,0,0,0,4.444,2.18,3.552,3.552,0,0,0,2.18-4.444C281.391,15.609,280.962,14.429,280.576,13.408Z"/>
        <path d="M101.186,160.6a3.5,3.5,0,0,0,4.064-2.825c2.4-13.343,9.041-25.436,19.742-35.943a3.5,3.5,0,1,0-4.905-4.994c-11.756,11.542-19.066,24.9-21.727,39.7A3.5,3.5,0,0,0,101.186,160.6Z"/>
        <path d="M132.288,106.7s-3.28,2.074-1.27,5.2c1.91,2.971,5.317.509,5.317.509a3.5,3.5,0,0,0-4.047-5.711Z"/>
        <path d="M151.107,96.18s-.747.285-2.068.877a3.5,3.5,0,0,0,1.432,6.695,23.811,23.811,0,0,0,3.148-1.039,3.5,3.5,0,0,0-2.512-6.533Z"/>
        <path d="M81.426,160.654h.054a3.5,3.5,0,0,0,3.5-3.446,76.227,76.227,0,0,1,7.149-31.042,3.5,3.5,0,0,0-6.353-2.941,83.169,83.169,0,0,0-7.8,33.876A3.5,3.5,0,0,0,81.426,160.654Z"/>
        <path d="M100.716,111.612c1.8-2.477,3.762-4.917,5.832-7.252a3.5,3.5,0,0,0-5.237-4.645c-2.221,2.5-4.327,5.123-6.259,7.784a3.5,3.5,0,1,0,5.664,4.113Z"/>
        <path d="M121.733,90.6a3.5,3.5,0,0,0-3.839-5.854s-4.43,2.227-2.284,5.571C117.5,93.267,121.705,90.616,121.733,90.6Z"/>
        <path d="M70.267,108.683A3.5,3.5,0,0,0,66,111.2a123.678,123.678,0,0,0-2.762,46.39,3.5,3.5,0,0,0,3.469,3.066,3.422,3.422,0,0,0,.438-.027,3.5,3.5,0,0,0,3.039-3.906,116.675,116.675,0,0,1,2.595-43.775A3.5,3.5,0,0,0,70.267,108.683Z"/>
        <path d="M74.3,97.179a3.571,3.571,0,0,0,4.629-1.754q.264-.586.531-1.158a3.5,3.5,0,1,0-6.344-2.959q-.287.612-.569,1.242A3.541,3.541,0,0,0,74.3,97.179Z"/>
        <path d="M91.718,69.413a3.506,3.506,0,0,0-4.946.182s-.319.343-.887,1.018a3.446,3.446,0,0,0,.431,4.931,3.813,3.813,0,0,0,4.931-.431c.395-.47.63-.728.662-.763A3.5,3.5,0,0,0,91.718,69.413Z"/>
        <path d="M48.566,158.925a3.5,3.5,0,0,0,6.126-3.389,115.143,115.143,0,0,1-12.844-37.353,3.5,3.5,0,0,0-6.909,1.125A122.155,122.155,0,0,0,48.566,158.925Z"/>
        <path d="M36.828,106.843l.155,0a3.5,3.5,0,0,0,3.344-3.649l-.03-.746a3.5,3.5,0,1,0-6.995.251l.032.8A3.5,3.5,0,0,0,36.828,106.843Z"/>
        <path d="M33.748,85.067l-.087,1.051a3.5,3.5,0,0,0,3.213,3.766c.094.007.188.011.28.011a3.5,3.5,0,0,0,3.486-3.224l.083-1.007a3.5,3.5,0,1,0-6.975-.6Z"/>
        <path d="M42.376,73.025a118.831,118.831,0,0,1,5.73-21.664,3.5,3.5,0,0,0-6.486-2.635,123.352,123.352,0,0,0-6.138,23.086,3.5,3.5,0,0,0,2.84,4.053,3.442,3.442,0,0,0,.611.054A3.5,3.5,0,0,0,42.376,73.025Z"/>
    </symbol>
    <symbol xmlns="http://www.w3.org/2000/svg" viewBox="0 0 340 340" id="tree">
        <path d="M69.873,196.639a32.712,32.712,0,0,1,7.7,24.042c-.807,10.593,2.452,19.666,9.425,26.236A40.294,40.294,0,0,0,114.5,257.8a46.414,46.414,0,0,1,21.427,5.681,57.328,57.328,0,0,0,21.563,6.377c.069,5.623.065,11.847-.014,18.633-3.487-3.574-5.789-6.19-5.835-6.242a3.494,3.494,0,0,0-5.9,1.045,34.636,34.636,0,0,0-2.245,13.256,72,72,0,0,0-30.8-6.758,3.495,3.495,0,0,0-1.5,6.577c5.452,3.078,9.993,8.244,13.1,12.5a26.063,26.063,0,0,0-8.375.756,3.5,3.5,0,0,0-2.336,4.422c5.473,17.1,18.892,19.324,19.461,19.41,0,0,3.8.523,4.375-2.831.342-2-1.4-3.76-3.294-4.085-.352-.06-7.783-1.444-12.316-10.719a18.386,18.386,0,0,1,8.583,1.718,3.5,3.5,0,0,0,4.665-4.737,69.53,69.53,0,0,0-10.929-15.018,66.319,66.319,0,0,1,21.543,7.777,3.682,3.682,0,0,0,3.091.355,3.506,3.506,0,0,0,2.243-4.014,34.357,34.357,0,0,1-.238-10.272,168.806,168.806,0,0,0,15.757,14.7,27.467,27.467,0,0,1,10.146,21.216,5.681,5.681,0,0,0,1.42,3.724l.043.049.265.3A5.61,5.61,0,0,0,182.6,333.5s44.45-.016,44.648-.049c.706-.119,17.359-3.073,25.49-16.639a3.558,3.558,0,0,0,.4-2.813,3.509,3.509,0,0,0-4.057-2.472,49.881,49.881,0,0,1-11.187.714,41.666,41.666,0,0,0,4.656-20.935,3.61,3.61,0,0,0-1.077-2.453,3.5,3.5,0,0,0-4.557-.247,110.288,110.288,0,0,1-13.339,8.6,31.273,31.273,0,0,0,.58-13.258,3.5,3.5,0,0,0-4.2-2.809c-.506.112-11.41,2.631-23.591,13.177-1.7-8.408-2.939-17.451-3.842-26.526a76.864,76.864,0,0,0,9.869-2.572,60.862,60.862,0,0,0,15.013-7.662,38.547,38.547,0,0,1,16.858-6.533,43.759,43.759,0,0,0,24.364-12.378c13.994-13.708,8.423-34.773,5.694-42.521,17.265-11.2,15.067-35.806,14.967-36.818-1.429-19.435-19.063-32.347-25.3-36.329,4.993-34.117-10.864-51.725-20.927-59.254A42.232,42.232,0,0,1,220.5,48.7C209.607,26.614,187.243,6.5,173.58,6.5c-13.452,0-22.627,13.639-25.371,18.3-17.6,3.847-24.77,14.977-27.687,23.775a41.071,41.071,0,0,1-17.208,21.55c-29.272,18.5-23.777,47.349-21.406,55.747-5.339,5.063-20.759,21.587-21.32,44.038A38.235,38.235,0,0,0,69.873,196.639ZM199.736,326.5H183.643a34.331,34.331,0,0,0-12.732-25.629c-2.232-1.789-4.443-3.726-6.53-5.652.466-26.3-.054-44.755-1.549-54.846a3.507,3.507,0,0,0-2.025-2.679c-.405-.182-39.151-17.995-47.041-48.57a6.718,6.718,0,0,1,5.014,3,51.071,51.071,0,0,0,27.472,20.758c.053.016.1.034.158.048a53.356,53.356,0,0,0,14.659,2.191,3.463,3.463,0,0,0,2.536-1.038,3.5,3.5,0,0,0,1.011-2.547c-.023-.931-1.91-81.326,1.763-131.266,4.8,22.223,11.49,58.519,11.089,86.747a3.5,3.5,0,0,0,3.5,3.549c.233,0,23.372-.387,26.18-33.871a6.206,6.206,0,0,1,4.238-5.364c.9,9.556,1.455,37.1-19.168,53.559a23.126,23.126,0,0,0-8.759,17.489C182.729,230.474,183.015,296.07,199.736,326.5ZM67.586,170.087c.584-23.372,20.384-40.272,20.581-40.437a3.509,3.509,0,0,0,1.017-3.953c-.486-1.259-11.564-31.049,17.869-49.652a48.083,48.083,0,0,0,20.113-25.264c3.508-10.583,11.568-17.119,23.954-19.426a3.509,3.509,0,0,0,2.472-1.841c.082-.16,8.395-16.014,19.988-16.014,9.853,0,30.179,17.083,40.642,38.3a49.258,49.258,0,0,0,14.646,17.528c11.008,8.238,23.039,24.438,17.845,54.836a3.5,3.5,0,0,0,1.756,3.653c.225.124,22.41,12.6,23.843,32.083.022.234,2.041,23.5-13.919,31.567a3.5,3.5,0,0,0-1.62,4.544,54.03,54.03,0,0,1,3.9,17.589c0,.006-1.651,21.625-31.349,18.786-23.355-2.232-34.957.26-38.851,1.428-.352-13.275-.2-24.568-.021-31.251a16.138,16.138,0,0,1,6.127-12.2,54.733,54.733,0,0,0,11.275-12.212c.091,0,.185,0,.275,0a44.207,44.207,0,0,0,7.413-.61c2.6,5.893,9.059,13.455,21.224,13.455l.352,0a21.593,21.593,0,0,0,3.341-.3,3.5,3.5,0,1,0-1.151-6.905,14.536,14.536,0,0,1-2.275.2l-.264,0c-8.525,0-12.562-4.95-14.322-8.312,9.939-3.768,15.816-11.227,19.221-17.882a3.557,3.557,0,0,0-.887-4.418,3.5,3.5,0,0,0-5.3,1.151c-3.543,6.963-10.436,15.016-23.466,16.391,9.968-20.673,6.063-43,5.833-44.247a3.5,3.5,0,0,0-3.877-2.838l-2.34.292a13.218,13.218,0,0,0-11.459,11.974c-1.627,19.41-10.6,25.1-15.694,26.766-.121-14.46-1.817-30.413-4.066-45.413-2.034-18.135,6.7-27.739,7.059-28.13a3.142,3.142,0,0,0,.215-.247c10.037-12.7,10.84-25.586,10.869-26.128a3.5,3.5,0,0,0-6.989-.388,44.03,44.03,0,0,1-9.292,22.075,34.419,34.419,0,0,0-5.822,9.766c-3.845-20.023-7.692-34.872-8.019-36.121a3.5,3.5,0,0,0-6.849.376c-2.655,18.053-3.823,46.044-4.268,73.185a30.612,30.612,0,0,0-14.248-7.638,25.657,25.657,0,0,1-3.259-1.072c10.371-19.58-.848-37.351-1.35-38.127a3.5,3.5,0,0,0-5.876,3.8c.1.154,9.381,14.858,1.165,30.8-8.141-6.474-10.056-16.417-10.155-16.962a3.5,3.5,0,0,0-6.893,1.218c.156.891,4.057,21.875,24.638,27.125,14.186,3.618,15.652,13.369,15.8,15.405-.218,27.662.2,52.273.393,61.539a45.037,45.037,0,0,1-8.8-1.642,12.286,12.286,0,0,1-5.616-9.961c-.863-25.835-16.432-39.284-17.094-39.844a3.5,3.5,0,0,0-4.528,5.338,40.155,40.155,0,0,1,6.81,8.5c-9.8.837-17.286-1.551-22.29-7.144a3.635,3.635,0,0,0-4.876-.588,3.5,3.5,0,0,0-.491,5.086c4.19,4.76,11.577,9.8,24.071,9.8a52.893,52.893,0,0,0,7.068-.5,53.506,53.506,0,0,1,4.334,19.579,19.623,19.623,0,0,0,.552,3.991,46.089,46.089,0,0,1-12.066-12.321,13.616,13.616,0,0,0-16.069-5.3l-.176.065a3.5,3.5,0,0,0-2.234,3.887c4.411,25.207,26.713,42.543,40.6,51.088-59.273,14.483-62.166-16.763-62.166-16.763a39.664,39.664,0,0,0-9.381-29.142A31.433,31.433,0,0,1,67.586,170.087Z"/>
        <path d="M96.963,155.8a3.555,3.555,0,0,0,.661-.063,3.5,3.5,0,0,0,2.78-4.095c-.109-.574-.152-.934-.159-1a3.5,3.5,0,0,0-6.966.691c.01.107.071.69.25,1.626A3.5,3.5,0,0,0,96.963,155.8Z"/>
        <path d="M249.183,182.447a3.484,3.484,0,0,0,1.945.593c2.032,0,3.265-2.095,3.433-2.367a3.5,3.5,0,0,0-1.14-4.817c-1.644-1.013-3.787-.236-5.2,1.736A3.462,3.462,0,0,0,249.183,182.447Z"/>
    </symbol>
    <symbol xmlns="http://www.w3.org/2000/svg" viewBox="0 0 340 340" id="grass">
        <path d="M308.9,117.433a3.5,3.5,0,0,0-2.247,4c4.742,23.074-3.11,44.343-3.189,44.551-.014.037-.026.073-.039.109a206.265,206.265,0,0,0-6.653,23.934,86.34,86.34,0,0,0-12.047-22.2,3.5,3.5,0,0,0-5.811.495,88.932,88.932,0,0,0-8.375,22.981,70.626,70.626,0,0,1-.483-22.876c9.49-61.68-7.675-84.168-8.41-85.1A3.5,3.5,0,0,0,255.436,86c.052.36,5.052,36.33-6.635,57.83a107.112,107.112,0,0,0-8.812,21.44c-4.176-17.779-10.362-26.4-10.713-26.879a3.5,3.5,0,0,0-6.318,2.236,106.186,106.186,0,0,1-8.279,45.992,3.5,3.5,0,0,0,6.466,2.682,115.514,115.514,0,0,0,8.508-34.209,121.956,121.956,0,0,1,6.682,33.017c.02,2.28.433,28.721,9.162,44.464a3.5,3.5,0,0,0,6.122-3.394c-8.059-14.535-8.283-40.971-8.285-41.237l0-.019c0-.006,0-.012,0-.018,0-.189-.125-19.128,11.617-40.731,6.428-11.826,8.323-27.081,8.59-39.527,2.572,12.623,3.874,31.89-.393,59.632-.161.906-3.8,22.31,5.565,40,.188.4,2.71,5.829,4,9.511a3.5,3.5,0,0,0,6.606-2.317c-1.146-3.266-3.073-7.561-3.9-9.356a96.64,96.64,0,0,1,7.067-28.212c4.242,6.739,11.152,19.866,11.376,34.16,0,.586-.112,9.949-1.168,14.84a3.5,3.5,0,1,0,6.843,1.477c1.213-5.622,1.319-15.5,1.325-16.28.006-.255.483-17.292,9.162-42.7a95.272,95.272,0,0,0,5.016-26.027c7.711,23.126,16.789,64.116,6.664,111.386a3.5,3.5,0,1,0,6.845,1.466c16.137-75.336-14.087-133.692-15.382-136.139A3.5,3.5,0,0,0,308.9,117.433Z"/>
        <path d="M30.207,219.687c.173-1.489,3.349-29.984-3.685-56.663a180.56,180.56,0,0,1,27.084,50.328c-12.864,25.241-5.061,41.914-4.688,42.677a3.5,3.5,0,0,0,6.3-3.046c-.333-.707-7.963-17.627,8.778-43.669A102.757,102.757,0,0,0,76.362,181.7a177.531,177.531,0,0,0,6.13-63.754c7.7,16.169,16.343,44.737,6.636,80.869a3.5,3.5,0,0,0,5.391,3.773c.785-.551,17.411-12.426,32.17-38.46,1.041,15.969.576,45.143-13.833,63.67-.061.079-.107.165-.16.248s-.1.148-.146.226a3.553,3.553,0,0,0-.191.429c-.02.053-.047.1-.065.155a3.591,3.591,0,0,0-.142.62c-.007.052,0,.1-.008.156a3.429,3.429,0,0,0-.017.475c0,.081.018.16.027.24a3.664,3.664,0,0,0,.063.389c.019.086.047.17.073.255a3.738,3.738,0,0,0,.134.361c.036.081.075.16.117.24a3.5,3.5,0,0,0,.216.347c.032.046.053.1.087.141.019.024.043.04.061.063s.049.072.078.106a3.55,3.55,0,0,0,.406.39c.014.011.025.026.039.037a3.526,3.526,0,0,0,.6.381c.067.034.134.06.2.089a3.386,3.386,0,0,0,.484.169c.071.019.14.039.211.053a3.429,3.429,0,0,0,.647.073c.016,0,.031,0,.047,0h.01c.05,0,.1-.01.149-.012a3.388,3.388,0,0,0,.428-.04c.066-.011.13-.032.2-.047a3.422,3.422,0,0,0,.373-.1c.071-.025.138-.059.207-.089a3.39,3.39,0,0,0,.335-.157c.019-.01.04-.016.06-.027.888-.517,21.995-12.93,42.162-37.354C175,176.9,192.167,147.965,194.688,110c4.619,24.35,4.809,65.884-27.372,113.541a3.5,3.5,0,0,0,4.64,5c.908-.52,19.609-11.374,31.169-28.95.862,6.683.866,14.855-2.527,19.662a3.5,3.5,0,0,0,5.719,4.037c8.346-11.823,1.977-33.761,1.7-34.688a3.5,3.5,0,0,0-6.549-.439c-4.4,9.791-12.091,18.038-18.945,23.991,19.392-34.931,22.453-65.6,21.25-86.188-1.5-25.678-9.6-41.426-9.943-42.084a3.5,3.5,0,0,0-6.583,1.98c3.947,38.4-7.14,73.76-32.951,105.113A176.187,176.187,0,0,1,140.254,206.1c7.127-12.631,12.35-27.836,15.444-45.208a202.284,202.284,0,0,0,3-44.615,3.5,3.5,0,0,0-6.984.473c.044.659,3.453,56.864-22.462,93.764,8.375-26.984,3.43-57.3,3.154-58.925a3.5,3.5,0,0,0-6.615-.911,144.759,144.759,0,0,1-16.419,26.847c4.245-11.438,6.269-26.428,6.268-50.093,0-1.931-2.115-3.19-4.02-2.882a3.5,3.5,0,0,0-2.887,4.019c.028.173.477,32.813-9.225,53.65,6.316-50.075-19.078-81.892-20.288-83.372a3.5,3.5,0,0,0-6.14,2.908,165.686,165.686,0,0,1-1.007,68.336c-8.677-47.941-38.018-72.978-39.388-74.122a3.5,3.5,0,0,0-5.434,4.127c10.076,22.291,12.519,45.659,12.794,61.338,0,0-.221,3.808-.713,7.447-10.61-16-20.181-25.268-20.848-25.9a3.5,3.5,0,0,0-5.5,4.194c9.114,16.87,10.991,39.285,11.033,54.535A47.761,47.761,0,0,0,12.279,188.01a3.5,3.5,0,0,0-5.413,3.838c3.213,10.651-.074,32.009-.108,32.224a3.644,3.644,0,0,0-.042.542c0,21.543,9.031,31.8,9.415,32.227a3.491,3.491,0,0,0,4.917.261,3.512,3.512,0,0,0,.3-4.933c-.076-.086-7.558-8.826-7.628-27.292a140.144,140.144,0,0,0,1.472-23.791,43.414,43.414,0,0,1,8.089,18.77,3.5,3.5,0,0,0,6.929-.169Z"/>
        <path d="M295,170.87c.059,0,.119,0,.178,0a3.5,3.5,0,0,0,3.493-3.324c1.734-34.584-8.39-60.984-8.821-62.091A3.5,3.5,0,0,0,283.324,108a159.519,159.519,0,0,1,8.351,59.2A3.5,3.5,0,0,0,295,170.87Z"/>
    </symbol>
    <symbol xmlns="http://www.w3.org/2000/svg" viewBox="0 0 340 340" id="snake-plant">
        <path d="M111.407,210.757a3.51,3.51,0,0,0-1.7,3.792L133.15,322.805A13.564,13.564,0,0,0,146.407,333.5H220a13.633,13.633,0,0,0,13.428-11.64L248.84,214.3a3.5,3.5,0,0,0-3.465-4h-7.934c3.332-7.7,6.481-20.172,6.07-39.541-.247-11.686.332-29.391,1.243-38a3.592,3.592,0,0,0-1.334-3.264,3.5,3.5,0,0,0-4.93.672,161.936,161.936,0,0,0-11.976,19.454,169.039,169.039,0,0,0-6.455-36.011,144.327,144.327,0,0,1-4.766-33.278,3.5,3.5,0,0,0-3.224-3.49,3.588,3.588,0,0,0-3.014,1.31c-13.482,15.989-20.094,41.09-20.662,43.321-8.331,24.638-7.106,37.517-3.789,61.983,1.659,12.232.258,21.137-1.444,26.843h-8.6a373.681,373.681,0,0,0-9.412-73.29,51,51,0,0,1-1.093-17.2c3.744-35.56,13.511-59.131,13.618-59.385q.03-.072.057-.144a100.406,100.406,0,0,0,4.784-17.37c3.32,13.71,6.052,33.156,2.545,53.6l-.014.082a3.191,3.191,0,0,0,2.638,3.688l.566.091a3.236,3.236,0,0,0,3.705-2.647l0-.031c6.9-40.255-8.66-75.776-9.326-77.269a3.5,3.5,0,0,0-6.587,2.293c.032.131,3.173,13.305-4.856,35.067-.583,1.4-5.446,10.014-9.574,31.3a.886.886,0,0,1-1.755-.131c-.7-16.976-4.879-52.293-26.16-80.946a3.61,3.61,0,0,0-3.575-1.447,3.506,3.506,0,0,0-2.756,4.062c.029.158,2.8,16-3.1,35.559a91.594,91.594,0,0,0-4.049,24.39,110.8,110.8,0,0,0,8.462,45.2,120.173,120.173,0,0,1,6.1,17.8c1.316,5.256,2.878,12.093,4.36,20.01C120.738,118.13,98.3,101.24,97.021,100.3a3.5,3.5,0,0,0-5.568,2.565c-3.235,44.887,18.3,71.159,27.7,80.371a40.408,40.408,0,0,1,10.289,16.254,47.008,47.008,0,0,1,2.129,10.822H113.241A3.662,3.662,0,0,0,111.407,210.757Zm83.821-87.744c.636-2.4,5.185-18.907,13.63-32.589a150.833,150.833,0,0,0,4.465,25.1c.013.049.028.1.044.148.175.55,17.1,54.966-4.653,94.636h-2.707c2.518-12.945,4.7-33.4-2.561-47.334C194.434,145.671,195.1,125.654,195.228,123.013Zm46.11,94.295L226.5,320.866A6.6,6.6,0,0,1,220,326.5H161.96l-11.408-94.481-1.776-14.71ZM124.053,178.231c-8.208-8.038-26.383-30.14-25.919-67.784,11.583,10.7,39.2,40.578,51.6,91.5.026.1.072.2.106.3l2.1,8.061H138.591a54.036,54.036,0,0,0-2.485-12.974A47.407,47.407,0,0,0,124.053,178.231Z"/>
    </symbol>
    <symbol xmlns="http://www.w3.org/2000/svg" viewBox="0 0 340 340" id="stones">
        <path d="M150.785 227.8C150.814 227.894 153.745 237.287 158.166 243.106C158.694 243.8 159.487 244.683 160.406 245.706C161.215 246.606 162.131 247.629 163.087 248.767C163.625 249.389 163.933 250.177 163.957 250.998C163.982 251.82 163.723 252.625 163.223 253.278C162.9 253.686 162.491 254.016 162.024 254.246C161.557 254.475 161.046 254.598 160.526 254.605C160.006 254.612 159.491 254.503 159.018 254.286C158.546 254.069 158.128 253.749 157.794 253.35C156.888 252.268 155.989 251.266 155.194 250.382C154.173 249.245 153.294 248.262 152.594 247.342C150.594 244.608 148.887 241.671 147.5 238.58C145.331 248.902 147.753 260.331 147.785 260.475C147.909 261.04 147.891 261.627 147.732 262.183C147.574 262.739 147.28 263.248 146.877 263.663C146.474 264.078 145.975 264.386 145.424 264.561C144.872 264.736 144.286 264.771 143.718 264.664C136.506 263.306 127.285 254.864 121.174 248.474C122.6 263.974 129.06 272.107 129.128 272.191C129.426 272.55 129.649 272.966 129.784 273.412C129.92 273.859 129.964 274.328 129.916 274.793C129.867 275.257 129.727 275.707 129.502 276.116C129.277 276.525 128.973 276.885 128.607 277.175C128.106 277.556 127.514 277.799 126.89 277.881C126.266 277.963 125.632 277.881 125.049 277.643C118.733 275.384 112.181 273.846 105.52 273.057C111.482 288.433 123.563 292.357 124.108 292.522C124.567 292.659 124.993 292.889 125.359 293.197C125.726 293.505 126.025 293.885 126.239 294.314C126.453 294.742 126.576 295.21 126.602 295.688C126.627 296.167 126.555 296.645 126.388 297.094C126.119 297.778 125.647 298.362 125.036 298.77C124.425 299.178 123.704 299.389 122.97 299.375H16.544C15.6979 299.376 14.8803 299.069 14.244 298.511C-1.32601 284.911 -0.156009 262.552 0.752991 255C0.781109 254.77 0.873183 254.553 1.01871 254.373C1.16423 254.193 1.35737 254.057 1.57617 253.981C1.79497 253.906 2.03062 253.893 2.25635 253.944C2.48207 253.996 2.6888 254.11 2.853 254.273C6.43444 257.904 10.912 260.524 15.832 261.867C7.049 247.29 8.80299 230.729 10.589 222.267C10.6829 221.824 10.9093 221.421 11.2381 221.11C11.5668 220.8 11.9824 220.596 12.4295 220.527C12.8767 220.459 13.3341 220.528 13.7411 220.725C14.1481 220.923 14.4854 221.239 14.708 221.633C19.065 229.333 28.514 243.792 40.653 249.213C50.243 232.088 77.502 211.331 86.053 205.641C88.739 203.854 91.8838 202.881 95.1095 202.839C98.3352 202.797 101.504 203.688 104.236 205.404C115.694 212.833 126.079 221.798 135.1 232.05C135.653 232.65 135.984 233.421 136.037 234.236C136.09 235.05 135.862 235.858 135.391 236.524C135.084 236.945 134.687 237.293 134.228 237.541C133.77 237.789 133.262 237.931 132.741 237.958C132.22 237.984 131.701 237.894 131.219 237.694C130.738 237.494 130.307 237.189 129.959 236.801C121.352 226.998 111.44 218.424 100.5 211.319C98.9114 210.322 97.0686 209.805 95.1932 209.831C93.3179 209.856 91.4898 210.423 89.929 211.463C81.929 216.789 67.645 226.898 60.171 235.821C59.789 242.414 59.123 279.736 91.479 292.371H110.561C105.481 287.936 100.032 280.892 97.194 269.992C97.012 269.337 97.0207 268.643 97.219 267.992C97.4541 267.249 97.9294 266.606 98.57 266.163C99.2105 265.72 99.9802 265.502 100.758 265.544C106.914 265.983 113.02 266.953 119.009 268.444C116.237 262.144 113.387 252.261 113.973 238.917C114.012 238.043 114.377 237.216 114.994 236.597C115.612 235.978 116.439 235.612 117.312 235.571C117.871 235.553 118.426 235.666 118.934 235.901C119.442 236.136 119.887 236.486 120.236 236.923C125.023 242.723 133.415 251.38 139.976 255.517C139.224 248.194 139.076 236.117 144.404 227.083C144.743 226.491 145.248 226.012 145.856 225.703C146.465 225.395 147.15 225.27 147.828 225.346C148.506 225.421 149.147 225.693 149.672 226.128C150.197 226.563 150.584 227.142 150.785 227.794V227.8Z"/>
        <path d="M321.432 270.279C321.71 270.926 321.786 271.642 321.65 272.333C321.514 273.024 321.174 273.658 320.672 274.152C320.559 274.263 309.372 285.407 308.319 296.212C308.235 297.077 307.832 297.879 307.188 298.463C306.545 299.047 305.708 299.371 304.839 299.372H163.77C163.302 299.372 162.838 299.279 162.407 299.096C161.976 298.914 161.585 298.647 161.259 298.312C160.933 297.976 160.677 297.578 160.507 297.142C160.337 296.706 160.257 296.24 160.27 295.772C161.109 266.22 175.143 228.595 183.433 208.797C184.405 206.479 185.849 204.388 187.671 202.657C179.404 199.539 177.831 193.816 177.748 193.485C177.734 193.434 177.722 193.385 177.711 193.33C176.677 188.288 176.86 178.588 178.256 164.502C178.603 160.871 180.293 157.501 182.995 155.051C185.697 152.601 189.216 151.247 192.863 151.256H195.144C189.144 146.207 183.732 137.636 184.371 123.209C184.659 116.678 186.689 111.203 190.403 106.936C190.417 106.92 190.434 106.909 190.448 106.893C201.113 94.7041 221.805 96.6931 225.468 97.1571C227.893 93.3131 227.899 88.0631 227.899 81.5461C227.936 80.0255 227.669 78.5128 227.113 77.0972C226.556 75.6815 225.723 74.3915 224.66 73.3031L198.15 71.5741C197.253 71.5154 196.354 71.6407 195.508 71.9422C194.661 72.2438 193.885 72.7151 193.228 73.3274C192.57 73.9397 192.044 74.68 191.683 75.5028C191.322 76.3255 191.133 77.2135 191.127 78.1121C191.093 81.4561 191.427 87.7921 194.033 92.8711C194.452 93.6362 194.581 94.5269 194.395 95.3793C194.209 96.2317 193.722 96.9884 193.023 97.5101C192.616 97.7962 192.152 97.9922 191.663 98.0848C191.173 98.1774 190.67 98.1647 190.186 98.0473C189.702 97.9299 189.249 97.7107 188.857 97.4042C188.465 97.0977 188.142 96.7111 187.911 96.2701C184.692 90.1331 184.077 82.9701 184.127 78.0391C184.142 76.2093 184.527 74.4015 185.258 72.7241C185.989 71.0467 187.052 69.5345 188.382 68.2781C189.712 67.0218 191.283 66.0473 192.999 65.4131C194.716 64.779 196.542 64.4984 198.37 64.5881C195.966 59.1573 195.384 53.0946 196.709 47.3054C198.034 41.5163 201.197 36.3111 205.724 32.4671C205.924 32.2511 206.217 31.9571 206.597 31.6131C205.22 30.5603 203.977 29.3426 202.897 27.9871C200.429 24.8719 199.274 20.9164 199.679 16.9627C200.083 13.009 202.015 9.36919 205.062 6.81806C208.973 3.4134 213.83 1.28503 218.984 0.718059C219.839 0.623035 220.702 0.60563 221.56 0.666059C226.096 0.996778 230.5 2.33529 234.453 4.58406C236.492 5.74421 238.236 7.35931 239.549 9.30364C240.862 11.248 241.709 13.4691 242.023 15.7941C242.355 18.0909 242.153 20.4335 241.431 22.6393C240.71 24.8452 239.49 26.8549 237.865 28.5121C236.9 29.4967 235.847 30.3899 234.717 31.1801C235.201 31.4631 235.687 31.7501 236.182 32.0651C249.1 40.2691 248.477 53.2811 246.322 59.1001L246.316 59.1141C246.307 59.1381 246.299 59.1651 246.29 59.1891C246.29 59.1971 246.281 59.2041 246.278 59.2121C245.261 62.1889 243.723 64.9613 241.736 67.4001L242.182 67.4291C245.003 67.6019 247.681 68.7289 249.777 70.625C251.872 72.5211 253.261 75.0735 253.714 77.8631C254.741 84.0721 254.868 89.2631 254.089 93.2951C253.032 98.7801 248.761 102.288 244.789 104.427C246.564 105.677 248.22 107.088 249.735 108.642C249.755 108.661 249.777 108.674 249.796 108.693C253.031 112.042 255.54 116.023 257.165 120.386C257.224 120.542 257.272 120.702 257.308 120.865C258.701 128.583 257.412 136.546 253.655 143.43V143.43C252.241 146.141 250.477 148.654 248.408 150.905C249.325 150.984 250.244 151.073 251.166 151.187C254.643 151.609 257.967 152.868 260.851 154.856C263.735 156.843 266.095 159.501 267.727 162.6C271.312 169.335 274.213 176.411 276.389 183.724C276.988 185.785 277.112 187.954 276.752 190.07C276.393 192.185 275.559 194.192 274.314 195.939C270.54 201.091 265.084 204.76 258.889 206.312C261.973 212.678 264.489 219.303 266.406 226.112C266.676 226.991 266.602 227.94 266.199 228.766C265.797 229.593 265.095 230.236 264.237 230.565C263.788 230.72 263.312 230.783 262.838 230.748C262.364 230.713 261.902 230.583 261.48 230.364C261.058 230.144 260.685 229.842 260.384 229.474C260.083 229.106 259.86 228.681 259.729 228.224C257.897 221.664 255.473 215.284 252.489 209.162C251.806 207.802 250.757 206.659 249.461 205.861C248.164 205.064 246.671 204.643 245.149 204.647H217.123C215.427 204.677 213.771 205.17 212.335 206.073C210.899 206.976 209.737 208.255 208.975 209.77C204.347 219.79 202.131 233.293 201.256 240.029C200.895 242.775 200.257 245.478 199.35 248.095C196.686 255.827 191.35 273.995 192.663 292.371H235.675C237.359 283.446 243.843 257.144 264.123 238.753C272.123 231.467 281.709 226.144 292.123 223.204C292.755 223.024 293.426 223.025 294.057 223.209C294.688 223.392 295.256 223.749 295.693 224.239C296.131 224.73 296.422 225.334 296.532 225.982C296.643 226.63 296.569 227.296 296.318 227.904C296.27 228.021 293.045 235.904 290.026 245.004C296.59 239.412 306.057 233.276 317.517 231.298C318.115 231.187 318.732 231.23 319.309 231.422C319.886 231.614 320.405 231.95 320.817 232.398C321.429 233.084 321.747 233.982 321.703 234.899C321.659 235.817 321.257 236.681 320.583 237.305C317.021 240.979 314.147 245.263 312.1 249.953C310.845 252.929 309.74 255.966 308.79 259.053C307.553 262.81 306.243 266.792 304.577 270.566C308.946 269.112 313.504 268.303 318.106 268.166C318.808 268.145 319.501 268.335 320.094 268.711C320.687 269.088 321.153 269.634 321.432 270.279V270.279ZM235.092 16.7581C234.922 15.4933 234.462 14.2848 233.749 13.2268C233.035 12.1687 232.087 11.2897 230.978 10.6581C227.945 8.94361 224.572 7.91609 221.098 7.64806C220.659 7.61712 220.217 7.62482 219.779 7.67106C216.019 8.08723 212.476 9.64272 209.625 12.1291C207.961 13.5018 206.898 15.4696 206.662 17.6141C206.426 19.7585 207.036 21.9104 208.362 23.6121C209.732 25.3563 211.516 26.7312 213.551 27.6121C217.744 26.3015 222.234 26.2868 226.435 27.5701C228.859 26.7787 231.061 25.4248 232.861 23.6191C233.736 22.7242 234.392 21.6395 234.779 20.4495C235.166 19.2595 235.273 17.9962 235.092 16.7581V16.7581ZM210.926 37.1281C210.937 37.1156 210.947 37.1026 210.956 37.0891L210.947 37.0981L210.926 37.1281ZM232.426 37.9701C218.403 29.0601 211.488 36.4781 210.912 37.1431C209.651 39.0531 209.784 43.8371 218.178 49.9021C218.553 50.1731 218.931 50.4271 219.31 50.6791C228.454 55.9681 236.316 55.3311 240.285 54.4401C240.887 50.7191 240.8 43.2901 232.43 37.9701H232.426ZM225.197 104.179C225.119 104.172 225.041 104.164 224.964 104.152C224.764 104.122 204.652 101.229 195.682 111.534C195.676 111.541 195.668 111.546 195.662 111.553C194.729 112.638 193.945 113.841 193.329 115.132C196.782 120.605 203.129 124.549 203.129 124.549C205.996 126.234 209.874 127.088 214.655 127.088C232.166 127.088 239.81 118.401 243.068 111.958C237.962 107.736 231.769 105.04 225.2 104.179H225.197ZM200.205 197.647H239.57C242.135 195.617 244.024 192.858 244.988 189.732C245.584 185.391 245.033 180.969 243.388 176.908C241.733 172.469 240.123 168.524 238.604 165.18C237.666 163.119 236.155 161.37 234.251 160.143C232.348 158.915 230.132 158.261 227.867 158.256H192.867C190.958 158.252 189.117 158.962 187.704 160.245C186.291 161.528 185.407 163.292 185.227 165.192C183.956 178.012 183.711 187.418 184.536 191.736C184.828 192.479 187.343 197.647 200.209 197.647H200.205Z"/>
        <path d="M220.151 116.508C219.38 116.508 218.626 116.279 217.984 115.851C217.343 115.422 216.843 114.813 216.548 114.1C216.253 113.388 216.175 112.604 216.326 111.847C216.476 111.091 216.848 110.396 217.393 109.85C217.939 109.305 218.634 108.933 219.39 108.783C220.147 108.632 220.931 108.71 221.643 109.005C222.356 109.3 222.965 109.8 223.394 110.441C223.822 111.083 224.051 111.837 224.051 112.608C224.051 113.12 223.95 113.627 223.754 114.1C223.558 114.574 223.271 115.004 222.909 115.366C222.547 115.728 222.117 116.015 221.643 116.211C221.17 116.407 220.663 116.508 220.151 116.508V116.508Z"/>
        <path d="M224.05 46.7751C223.279 46.7751 222.525 46.5464 221.883 46.1178C221.242 45.6893 220.742 45.0802 220.447 44.3676C220.152 43.6549 220.074 42.8708 220.225 42.1142C220.375 41.3577 220.747 40.6628 221.292 40.1174C221.838 39.572 222.533 39.2005 223.289 39.05C224.046 38.8996 224.83 38.9768 225.542 39.272C226.255 39.5672 226.864 40.067 227.293 40.7084C227.721 41.3497 227.95 42.1038 227.95 42.8751C227.95 43.9094 227.539 44.9014 226.808 45.6328C226.076 46.3642 225.084 46.7751 224.05 46.7751V46.7751Z"/>
        <path d="M205.566 118.925C204.795 118.925 204.041 118.696 203.399 118.268C202.758 117.839 202.258 117.23 201.963 116.517C201.668 115.805 201.59 115.021 201.741 114.264C201.891 113.508 202.263 112.813 202.808 112.267C203.354 111.722 204.049 111.35 204.805 111.2C205.562 111.049 206.346 111.127 207.058 111.422C207.771 111.717 208.38 112.217 208.809 112.858C209.237 113.5 209.466 114.254 209.466 115.025C209.466 116.059 209.055 117.051 208.324 117.783C207.592 118.514 206.6 118.925 205.566 118.925Z"/>
        <path d="M197.685 165.835C198.442 165.985 199.137 166.357 199.682 166.902C200.228 167.447 200.599 168.142 200.75 168.898C200.901 169.655 200.824 170.439 200.529 171.152C200.234 171.865 199.734 172.474 199.093 172.903C198.451 173.331 197.697 173.56 196.926 173.56C196.155 173.56 195.401 173.332 194.759 172.903C194.118 172.475 193.618 171.866 193.322 171.153C193.027 170.441 192.95 169.657 193.1 168.9C193.302 167.886 193.898 166.993 194.758 166.418C195.618 165.843 196.671 165.634 197.685 165.835V165.835Z"/>
        <path d="M213.293 167.263C214.05 167.414 214.745 167.785 215.29 168.33C215.836 168.876 216.207 169.571 216.358 170.328C216.508 171.084 216.431 171.869 216.136 172.581C215.84 173.294 215.34 173.903 214.699 174.332C214.057 174.76 213.303 174.989 212.531 174.988C211.76 174.988 211.006 174.759 210.365 174.33C209.723 173.901 209.224 173.292 208.929 172.579C208.634 171.866 208.557 171.082 208.708 170.325C208.91 169.311 209.507 168.419 210.367 167.845C211.226 167.271 212.279 167.062 213.293 167.263V167.263Z"/>
        <path d="M203.752 179.153C204.509 179.304 205.204 179.675 205.749 180.221C206.294 180.767 206.666 181.462 206.816 182.218C206.966 182.975 206.889 183.759 206.593 184.472C206.297 185.185 205.797 185.794 205.156 186.222C204.514 186.65 203.76 186.878 202.988 186.878C202.217 186.878 201.463 186.648 200.822 186.219C200.181 185.79 199.681 185.181 199.386 184.468C199.092 183.755 199.015 182.971 199.166 182.214C199.369 181.2 199.965 180.308 200.825 179.734C201.685 179.16 202.738 178.951 203.752 179.153V179.153Z"/>
        <path d="M239.874 215.18C240.631 215.331 241.325 215.702 241.871 216.248C242.416 216.793 242.788 217.488 242.938 218.245C243.088 219.002 243.011 219.786 242.715 220.499C242.42 221.211 241.92 221.82 241.278 222.248C240.637 222.677 239.883 222.905 239.111 222.905C238.34 222.905 237.586 222.676 236.944 222.247C236.303 221.818 235.804 221.209 235.509 220.496C235.214 219.783 235.137 218.999 235.288 218.242C235.49 217.228 236.087 216.336 236.947 215.762C237.807 215.187 238.86 214.978 239.874 215.18Z"/>
        <path d="M247.459 239.539C246.702 239.388 246.007 239.017 245.462 238.471C244.917 237.925 244.545 237.23 244.395 236.474C244.245 235.717 244.323 234.933 244.618 234.22C244.914 233.508 245.414 232.899 246.055 232.47C246.697 232.042 247.451 231.814 248.223 231.814C248.994 231.815 249.748 232.044 250.389 232.473C251.031 232.902 251.53 233.511 251.825 234.224C252.119 234.937 252.196 235.722 252.045 236.478C251.842 237.492 251.246 238.384 250.386 238.958C249.526 239.532 248.473 239.741 247.459 239.539V239.539Z"/>
        <path d="M230.855 236.55C230.098 236.399 229.404 236.028 228.858 235.482C228.313 234.937 227.941 234.242 227.791 233.485C227.641 232.728 227.718 231.944 228.014 231.232C228.309 230.519 228.809 229.91 229.451 229.482C230.092 229.053 230.846 228.825 231.618 228.825C232.389 228.825 233.143 229.054 233.785 229.483C234.426 229.912 234.925 230.522 235.22 231.234C235.515 231.947 235.592 232.732 235.441 233.488C235.239 234.502 234.642 235.394 233.782 235.969C232.922 236.543 231.869 236.752 230.855 236.55V236.55Z"/>
        <path d="M93.968 228.75C93.2113 228.6 92.5163 228.228 91.9708 227.682C91.4253 227.137 91.0538 226.442 90.9034 225.685C90.753 224.928 90.8304 224.144 91.1259 223.431C91.4213 222.719 91.9215 222.11 92.5632 221.681C93.2048 221.253 93.9591 221.025 94.7306 221.025C95.5021 221.025 96.2561 221.254 96.8973 221.684C97.5386 222.113 98.0381 222.722 98.3328 223.435C98.6276 224.148 98.7042 224.932 98.553 225.689C98.3505 226.703 97.7538 227.595 96.8941 228.168C96.0343 228.742 94.9819 228.952 93.968 228.75V228.75Z"/>
        <path d="M81.346 238.285C80.5893 238.135 79.8943 237.763 79.3487 237.218C78.8032 236.672 78.4318 235.977 78.2814 235.22C78.131 234.463 78.2084 233.679 78.5039 232.966C78.7993 232.254 79.2995 231.645 79.9411 231.216C80.5828 230.788 81.3371 230.56 82.1086 230.56C82.8801 230.56 83.6341 230.79 84.2753 231.219C84.9165 231.648 85.4161 232.257 85.7108 232.97C86.0055 233.683 86.0822 234.467 85.931 235.224C85.7285 236.238 85.1318 237.13 84.272 237.704C83.4123 238.277 82.3599 238.487 81.346 238.285V238.285Z"/>
        <path d="M102.453 241.1C102.302 241.857 101.931 242.552 101.385 243.097C100.84 243.642 100.145 244.014 99.388 244.164C98.6314 244.314 97.8472 244.237 97.1346 243.941C96.4219 243.646 95.8129 243.146 95.3846 242.504C94.9562 241.863 94.7278 241.109 94.7281 240.337C94.7284 239.566 94.9574 238.812 95.3863 238.171C95.8152 237.529 96.4246 237.03 97.1374 236.735C97.8502 236.44 98.6345 236.363 99.391 236.514C100.405 236.716 101.297 237.313 101.872 238.173C102.446 239.033 102.655 240.086 102.453 241.1V241.1Z"/>
    </symbol>
    <symbol xmlns="http://www.w3.org/2000/svg" viewBox="0 0 340 340" id="gardener">
        <path d="M42.2,277.865l5.643,4.414q-1.412,1.627-2.818,3.349a3.5,3.5,0,0,0,.41,4.845l24.136,21.092.581,5.325A16.621,16.621,0,0,0,83.8,331.406s7.017,1.553,11,.6c1.018-.244,1.236-1.688,1.21-2.735L93.8,240.1c16.892-22,16.061-54.665,14.9-67.835a5.617,5.617,0,0,1,3.1-5.481,92.5,92.5,0,0,1,10.421-4.516c2.068,19.542.164,60.389.164,60.389,0,2.08.936,3.666,3.5,3.666H164.5a3.5,3.5,0,0,0,3.49-3.23c1.822-23.49-2.534-52.273-4.478-63.5a59.955,59.955,0,0,1,10.415,3.2,5.525,5.525,0,0,1,3.31,3.826c2.354,9.764,4.642,21.989,6.8,36.335a3.5,3.5,0,0,0,6.922-1.042c-1.639-10.887-3.355-20.586-5.121-28.954a66.994,66.994,0,0,1,16.6,16.919,3.5,3.5,0,0,0,5.779-3.949,73.946,73.946,0,0,0-19.085-19.23,44.653,44.653,0,0,0-5.575-3.268,12.535,12.535,0,0,0-7.02-7.134,61.554,61.554,0,0,0-14.677-4.058,79.47,79.47,0,0,1-2.874-14.282c8.245-6.712,11.191-17.057,12.236-23.524,3.184-1.327,8.709-4.51,10.777-11.138A16.575,16.575,0,0,0,181,91.136a14.467,14.467,0,0,0-7.728-7.331,23.858,23.858,0,0,0,3.609-13.7c7.862-1.352,15.744-2.58,23.54-3.63a8.079,8.079,0,0,0,.009-16.012,229.271,229.271,0,0,0-29.288-1.994c-.737-3.654-6.4-25.044-8.15-29.79a17.553,17.553,0,0,0-15.95-11.478C134.449,6.771,114.35,8.46,90.117,19.029a17.811,17.811,0,0,0-10.48,18.319c.7,5.833,3.793,25.647,4.591,29.414A180.594,180.594,0,0,0,57.939,81.828a8.1,8.1,0,0,0,4.483,14.766c.758,0,14.89-3.873,22.567-5.926A20.022,20.022,0,0,0,95.2,99.541a14.469,14.469,0,0,0-2.04,4.088c-1.94,6.149.215,13.108,5.492,17.731,3.018,2.644,7.274,2.926,10.139,2.741a36.651,36.651,0,0,0,13.669,15.817c-.206,3.723-.506,9.423-.743,15.1a99.933,99.933,0,0,0-13.124,5.539,12.75,12.75,0,0,0-5.485,5.42c-12.778,5.6-37.208,22.541-49.448,44.865a3.5,3.5,0,0,0,.9,4.433l3.264,2.569c-5.6,7.271-14.576,19.561-21.377,31.928A22.039,22.039,0,0,0,42.2,277.865Zm117.594-94.079a233.6,233.6,0,0,1,1.422,35.541h-31.69c.257-6.389.722-20.044.656-33.566a22.421,22.421,0,0,0,13.7,4.1C150.563,189.864,155.98,187.751,159.794,183.786Zm-30.078-23.452c10.513-1.447,19.448-7.171,24-10.772.9,5.093,2.08,11.529,2.974,16.4a14.285,14.285,0,0,1-5.775,14.36,12.663,12.663,0,0,1-7.028,2.544,14.148,14.148,0,0,1-6.784-2.186,14.323,14.323,0,0,1-7.051-11.847C129.946,166.339,129.828,163.367,129.716,160.334ZM92.916,25.446C117.159,14.871,137.079,13.86,146.8,14.2a10.577,10.577,0,0,1,9.624,6.9c1.189,3.229,2.334,6.768,3.427,10.542-29.64-1.32-56.155,8.647-71.769,16.246q-.777-5.413-1.49-11.371A10.76,10.76,0,0,1,92.916,25.446ZM62.807,89.536a.961.961,0,0,1-1.265-.567,1,1,0,0,1,.377-1.382c36.33-25.111,75.048-32.228,107.273-32.228A228.778,228.778,0,0,1,199.5,57.405a.954.954,0,0,1,.922,1.06.969.969,0,0,1-.936,1.078C147.332,66.567,91.467,81.349,62.807,89.536Zm51.553,29.628a3.506,3.506,0,0,0-4.083-2.3c-1.531.344-5.419.626-7.012-.769-3.187-2.792-4.533-6.858-3.428-10.358a7.184,7.184,0,0,1,5.5-4.933l.075-.015a6.8,6.8,0,0,0,4.574-3.349c2.379-4.339,2.547-9.423,2.026-13.679,11.372-2.772,23.624-5.58,36.288-8.207,6.125,12.739,17.361,14.152,17.861,14.208a3.607,3.607,0,0,0,.389.021c.037,0,.073-.008.11-.009s.058.006.087,0c3.777-.216,6.39,1.246,7.981,4.463a9.5,9.5,0,0,1,.587,6.978c-1.518,4.865-6.605,6.759-7.832,7.15a3.5,3.5,0,0,0-2.907,3.046v0c-.975,8.367-4.874,22.818-20.029,25.6C122.155,141.121,114.665,120.053,114.36,119.164ZM75.265,257.45,86.9,244.137l.664,26.712C84.749,267.633,75.265,257.45,75.265,257.45Zm26.579-83.076c.977,12.748,1.19,40.343-12.235,59.584l-28.332-22.3C71.382,195.01,89.422,180.957,101.844,174.374ZM42.586,253.149a258.612,258.612,0,0,1,20.743-30.971l19.823,15.6L68.1,255.011a3.5,3.5,0,0,0-.134,4.443l1.646,2.129a159.047,159.047,0,0,0-17.05,15.5l-6.051-4.733A15.065,15.065,0,0,1,42.586,253.149Z"/>
        <path d="M222.911,172.573a20.494,20.494,0,0,0,3.682,1.913c-14.017,15.14-20.6,32.5-23.664,46.181a44.713,44.713,0,0,0-17.385-8.271,3.5,3.5,0,0,0-4.256,3.824l1.65,13.909a37.938,37.938,0,0,0-19.525,4.608A3.5,3.5,0,0,0,164.8,241.3c.078.007,6.766.654,11.4,8.2h-11a4.819,4.819,0,0,0-4.819,4.818V303.68a29.175,29.175,0,0,0,29.175,29.175h69.645a11.7,11.7,0,0,0,11.683-11.684V296.812a11.7,11.7,0,0,0-11.683-11.684h-9.9V253a3.5,3.5,0,0,0-2.776-3.423,50.524,50.524,0,0,0,9.073-15.836,3.5,3.5,0,0,0-2.393-4.577,37.618,37.618,0,0,0-9.877-1,31.914,31.914,0,0,1,9.294-9.392,3.5,3.5,0,0,0-1.774-6.461,55.682,55.682,0,0,0-27.189,7.576,88.294,88.294,0,0,1,17.15-31.628,20.606,20.606,0,0,0,2.2,4.413,16.487,16.487,0,0,0,13.784,7.8h7.835a16.486,16.486,0,0,0,13.783-7.8,21.626,21.626,0,0,0,2.728-17.388,21.808,21.808,0,0,0,5.621.76,21.341,21.341,0,0,0,11.751-3.472,16.488,16.488,0,0,0,7.8-13.784v-7.835a16.487,16.487,0,0,0-7.8-13.783,21.674,21.674,0,0,0-20.227-1.758,41.826,41.826,0,0,0-9.5,5.61,15.9,15.9,0,0,0-16.142,0q-1.255-.987-2.6-1.88a36.554,36.554,0,0,1-2.341-4.587,14.6,14.6,0,0,1,1.155-13.625,9.613,9.613,0,0,1,7.945-4.66h7.835c5.146,0,9.524,4.736,10.183,11.015a3.5,3.5,0,1,0,6.962-.73c-1.034-9.854-8.4-17.285-17.145-17.285H256.8a16.488,16.488,0,0,0-13.784,7.8,21.624,21.624,0,0,0-2.732,17.368,21.624,21.624,0,0,0-17.368,2.732,16.486,16.486,0,0,0-7.8,13.783v7.835A16.487,16.487,0,0,0,222.911,172.573Zm19.4,112.555h-4.292V285.1a13.361,13.361,0,1,0-26.721,0v.8a23.258,23.258,0,0,0-19.721,22.958v.778a23.14,23.14,0,0,0,6.6,16.2A24.91,24.91,0,0,1,174.3,300.971V256.5h68.01Zm-2.232-64.345a43.1,43.1,0,0,0-6.358,10.485,3.5,3.5,0,0,0,4.14,4.662,28.311,28.311,0,0,1,9.546-.638,38.721,38.721,0,0,1-10.792,14.2h-52.52a26.35,26.35,0,0,0-9.428-11.6,28.7,28.7,0,0,1,11.463-.4,3.5,3.5,0,0,0,4.282-3.818l-1.539-12.973a41.449,41.449,0,0,1,19.639,16.324,3.5,3.5,0,0,0,5.864.394A45.377,45.377,0,0,1,240.075,220.783Zm-25.457,5.884c-.949.9-1.885,1.839-2.8,2.849-.786-1.014-1.744-2.16-2.869-3.369a96.438,96.438,0,0,1,16.565-39.358,27.5,27.5,0,0,0,7.409.077C224.182,198.06,218.036,211.4,214.618,226.667Zm59.356-80.818a35.283,35.283,0,0,1,7.053-3.995,14.6,14.6,0,0,1,13.625,1.155,9.613,9.613,0,0,1,4.66,7.945v7.835a9.613,9.613,0,0,1-4.66,7.945,14.6,14.6,0,0,1-13.625,1.155,35.29,35.29,0,0,1-7.056-3.99,16,16,0,0,0,0-18.05Zm-13.262-.026a9.049,9.049,0,1,1-9.048,9.049A9.06,9.06,0,0,1,260.712,145.823Zm-10.684,24.783q1.353-.9,2.612-1.886a15.908,15.908,0,0,0,16.144,0q1.255.987,2.605,1.881a36.734,36.734,0,0,1,2.341,4.585,14.6,14.6,0,0,1-1.155,13.626,9.614,9.614,0,0,1-7.945,4.659H256.8a9.613,9.613,0,0,1-7.945-4.66,14.6,14.6,0,0,1-1.156-13.624A36.7,36.7,0,0,1,250.028,170.606Zm-27.915-19.652a9.614,9.614,0,0,1,4.66-7.945,14.6,14.6,0,0,1,13.625-1.155,35.377,35.377,0,0,1,7.058,3.988,16,16,0,0,0,0,18.057,35.254,35.254,0,0,1-7.055,3.99,14.6,14.6,0,0,1-13.625-1.155,9.613,9.613,0,0,1-4.66-7.945Z"/>
        <path d="M154.58,117.526a3.5,3.5,0,1,0-5.088-4.807c-7.988,8.457-18.222,4.782-18.688,4.608a3.5,3.5,0,0,0-2.507,6.535,25.446,25.446,0,0,0,8.519,1.407A23.794,23.794,0,0,0,154.58,117.526Z"/>
        <path d="M130.735,101.825a3.9,3.9,0,1,0-3.9,3.9A3.9,3.9,0,0,0,130.735,101.825Z"/>
        <path d="M146.873,101.825a3.9,3.9,0,1,0-3.9-3.9A3.9,3.9,0,0,0,146.873,101.825Z"/>
    </symbol>
    <symbol xmlns="http://www.w3.org/2000/svg" viewBox="0 0 340 340" id="waterfall">
        <path d="M198.572,318.343a3.5,3.5,0,0,0,0-7H197.3a3.5,3.5,0,0,0,0,7Z"/>
        <path d="M11.838,212.566a2.1,2.1,0,0,0-3.675,1.4c-.038,20.225,5.136,39.543,18.875,57.37C17.833,277.169,14.932,286.712,15.643,293l.28,2.473a13.7,13.7,0,0,0,13.611,12.154h48.8a3.633,3.633,0,0,0,3.693-3.312,3.5,3.5,0,0,0-3.5-3.688h-49a6.694,6.694,0,0,1-6.652-5.942l-.28-2.472a15.558,15.558,0,0,1,4.175-12.5c5.3-5.58,13.408-13.443,21.845-19.127a15.458,15.458,0,0,1,8.644-2.6H80.211a85.516,85.516,0,0,0,13.522-1.075l12.451-1.991a12.606,12.606,0,0,1,12.456,5.473c5.857,8.828,8.884,16.83,8.765,22.97-6.267-.549-19.421.64-25.058,1.206a8.758,8.758,0,0,0-5.264,2.451c-3.887,3.81-10.463,12.819-7.72,28.479a3.479,3.479,0,0,0,3.439,2.848h90.415a3.5,3.5,0,0,0,3.495-3.688,3.633,3.633,0,0,0-3.693-3.312H171.68A7.3,7.3,0,0,1,164.7,306.2a68.351,68.351,0,0,0-2.923-7.836,20.344,20.344,0,0,0-13.466-11.4,129.413,129.413,0,0,0-13.927-2.806c.458-9.67-4.947-20.162-9.912-27.647a19.568,19.568,0,0,0-7.385-6.589C106.032,197.611,75.3,177.205,64.91,171.674a2.089,2.089,0,0,0-3.057,2.065,190.5,190.5,0,0,1,1.014,27.1c-6.591-8.391-25.932-19.76-25.932-19.76-11.009-7.234-17.446-18.365-20.718-25.667a2.094,2.094,0,0,0-3.993.628c-1.516,13.97-1.928,43.554,16.939,66.183C21.583,221.961,15.442,216.63,11.838,212.566Z"/>
        <path d="M333.5,219.018c0-5.774-2.785-10.79-6.061-15.544C320.371,193.217,305.794,201,305.794,201c3.477-6.536,3.707-16.238,3.527-21.515a1.863,1.863,0,0,0-3.016-1.386c-7.523,5.757-13.465,5.2-21.05,9.788,8.56-20.516,8.865-41.306,8.375-51.267a1.857,1.857,0,0,0-3.449-.865c-5.168,8.634-16.449,25.54-28.458,31.093,17.918-37.815,17.168-79.883,15.578-99.14a2.237,2.237,0,0,0-4.345-.538c-3.555,10.219-10.22,26.164-20.42,38.234-1.83-10.425-4-20.636-6.492-30.436A20.859,20.859,0,0,0,229.8,59.642L201.8,54.327a196.636,196.636,0,0,0-12.549-24.893A16.326,16.326,0,0,0,170.832,22.3l-26.667,7.745a23.792,23.792,0,0,0-12.795,9.118L110.228,71.533a35.951,35.951,0,0,0-18.3-4.95H51.491l-.322-1.93A15.913,15.913,0,0,0,40.6,52.208L24.771,47.03a14.09,14.09,0,0,0-12.906,1.986A13.484,13.484,0,0,0,6.5,59.855v73.954A3.633,3.633,0,0,0,9.812,137.5a3.5,3.5,0,0,0,3.688-3.5v-73.9a6.91,6.91,0,0,1,2.48-5.425,6.563,6.563,0,0,1,6.214-1.131l16.181,5.293a8.9,8.9,0,0,1,5.89,6.959l9.2,55.172a3.5,3.5,0,1,0,6.905-1.151L55.306,89.47a123.806,123.806,0,0,1,21.855,23.44c12.351,17.121,27.1,46.416,27.217,88.741a3.491,3.491,0,0,0,3.5,3.466h.011a3.5,3.5,0,0,0,3.489-3.514c-.128-44.342-15.7-75.089-28.747-93.075-14.2-19.579-28.278-28.544-28.871-28.916-.034-.021-.071-.032-.1-.052l-1-5.977H91.93a28.937,28.937,0,0,1,16.846,5.329c19.5,13.841,65.975,54.759,76.264,135.574a20.691,20.691,0,0,0,19.212,18c14.587.921,36.046,3.569,55.441,10.949l9.5,3.792c-.2.165-.387.34-.594.5l-6.923,5.183a23.675,23.675,0,0,0-9.44,17.517L251.416,284l-13.355,1.961a21.21,21.21,0,0,0-12.361,6.507,98.646,98.646,0,0,0-14.855,20.812,3.513,3.513,0,0,0,1.123,4.443,3.56,3.56,0,0,0,2.083.625h68.441a19.375,19.375,0,0,0,6.457-1.107l9.525-3.365a19.354,19.354,0,0,0,12.778-20.651c-.265-2.089-.585-4.151-.951-6.128a17.43,17.43,0,0,0-14.78-14.136l-13.094-1.792a21,21,0,0,0-16.416,4.78l-5.388,4.562a14,14,0,0,1-2.071,1.445l.673-11.109a16.669,16.669,0,0,1,6.647-12.336l6.923-5.183a23.4,23.4,0,0,0,2.347-2.023v5.935a3.633,3.633,0,0,0,3.312,3.693,3.5,3.5,0,0,0,3.688-3.5v-20.51l.819-7.014a16.67,16.67,0,0,1,8.285-12.536l19.238-10.993a9.514,9.514,0,0,1,11.579,1.594,15.926,15.926,0,0,1,4.437,11.044V273.07a14.59,14.59,0,0,1-7.6,12.809l-1.214.662a3.227,3.227,0,0,0-1.088,4.781c2.11,2.66,5.658.7,5.658.7A21.579,21.579,0,0,0,333.5,273.07ZM215.416,156.763a166.655,166.655,0,0,1,2.645-56.262,1.859,1.859,0,0,0-2.9-1.937c-7.75,5.605-25.546,24.609-33.884,55.607-20.551-49.3-64.623-79.641-64.624-79.642L137.086,43.2a16.8,16.8,0,0,1,9.032-6.436l26.666-7.744a9.3,9.3,0,0,1,10.5,4.071,195.7,195.7,0,0,1,12.75,25.615c.008.021.023.038.032.059s.016.058.029.087l8.722,19.311a3.5,3.5,0,0,0,5.1,1.5,3.594,3.594,0,0,0,1.225-4.5l-5.894-13.052,23.242,4.413a13.836,13.836,0,0,1,10.77,10.169c2.974,11.71,5.5,24.016,7.5,36.583C246.763,113.271,223.7,135.524,215.416,156.763Zm49.73,129.085,5.389-4.562a14,14,0,0,1,10.943-3.186l13.094,1.791a10.442,10.442,0,0,1,8.846,8.477c.338,1.822.634,3.725.88,5.656a12.451,12.451,0,0,1-8.156,13.246l-9.527,3.366a12.345,12.345,0,0,1-4.123.707H220.039a94.741,94.741,0,0,1,10.776-14.1,14.188,14.188,0,0,1,8.263-4.359l15.549-2.284A20.963,20.963,0,0,0,265.146,285.848Z"/>
        <path d="M128.162,233.646a3.5,3.5,0,0,0-3.738,3.245q-.08,1.122-.172,2.254a3.5,3.5,0,0,0,3.207,3.771c.1.008.191.011.286.011a3.5,3.5,0,0,0,3.485-3.217q.095-1.167.176-2.326A3.5,3.5,0,0,0,128.162,233.646Z"/>
        <path d="M122.985,170.922a3.5,3.5,0,0,0-2.7,4.151,218.834,218.834,0,0,1,4.719,44.754,3.5,3.5,0,0,0,3.5,3.49h.011a3.5,3.5,0,0,0,3.489-3.51,225.744,225.744,0,0,0-4.872-46.189A3.5,3.5,0,0,0,122.985,170.922Z"/>
        <path d="M122.505,155.645q-.57-1.88-1.163-3.705a3.5,3.5,0,1,0-6.659,2.157q.571,1.766,1.125,3.583a3.5,3.5,0,0,0,6.7-2.035Z"/>
        <path d="M87.464,95.236a3.5,3.5,0,0,0-.389,4.934c.105.123,10.628,12.576,20.527,35.237a3.5,3.5,0,0,0,6.415-2.8C103.705,109,92.855,96.16,92.4,95.625A3.5,3.5,0,0,0,87.464,95.236Z"/>
        <path d="M131.407,123.639a3.5,3.5,0,0,0-1.187,4.8c17.464,28.928,27.413,61.562,29.572,96.994a3.5,3.5,0,0,0,3.49,3.287c.072,0,.143,0,.216-.006a3.5,3.5,0,0,0,3.281-3.707c-2.228-36.572-12.512-70.28-30.567-100.186A3.5,3.5,0,0,0,131.407,123.639Z"/>
        <path d="M102.6,83.369a3.5,3.5,0,0,0-4.644,5.238,158.014,158.014,0,0,1,19.322,20.978,3.5,3.5,0,0,0,5.528-4.3A165.168,165.168,0,0,0,102.6,83.369Z"/>
        <path d="M183.082,250.221c-13.131,14.348-38.7,6.308-39.034,6.2a3.5,3.5,0,0,0-2.172,6.654,64.625,64.625,0,0,0,18.373,2.736c9.244,0,20.122-2.258,28-10.862a3.5,3.5,0,0,0-5.164-4.727Z"/>
        <path d="M221.626,253.057a3.5,3.5,0,0,0-6.936-.945c-4.148,30.432-44.282,26.648-46.017,26.468a3.5,3.5,0,0,0-.732,6.962c.209.022,2.45.248,5.914.248a75.082,75.082,0,0,0,18.509-2.242C209.392,279.119,219.51,268.575,221.626,253.057Z"/>
        <path d="M156.832,53.513a3.9,3.9,0,1,0,3.9,3.9A3.9,3.9,0,0,0,156.832,53.513Z"/>
        <path d="M173.9,45.715a3.9,3.9,0,1,0,3.9,3.9A3.9,3.9,0,0,0,173.9,45.715Z"/>
        <path d="M173.9,63.169a3.9,3.9,0,1,0,3.9,3.9A3.9,3.9,0,0,0,173.9,63.169Z"/>
        <path d="M29.557,73.553a3.9,3.9,0,1,0,3.9,3.9A3.9,3.9,0,0,0,29.557,73.553Z"/>
        <path d="M36.092,95.019a3.9,3.9,0,1,0-3.9-3.9A3.9,3.9,0,0,0,36.092,95.019Z"/>
        <path d="M297.51,228.257a3.9,3.9,0,1,0,3.9-3.9A3.9,3.9,0,0,0,297.51,228.257Z"/>
        <circle cx="314.681" cy="221.092" r="3.899"/>
        <path d="M313.612,239.954a3.9,3.9,0,1,0-3.9-3.9A3.9,3.9,0,0,0,313.612,239.954Z"/>
        <path d="M65.323,267.436a3.9,3.9,0,1,0,3.9,3.9A3.9,3.9,0,0,0,65.323,267.436Z"/>
        <path d="M46.189,280.422a3.9,3.9,0,1,0,3.9-3.9A3.9,3.9,0,0,0,46.189,280.422Z"/>
        <path d="M65.323,283.052a3.9,3.9,0,1,0,3.9,3.9A3.9,3.9,0,0,0,65.323,283.052Z"/>
        <path d="M277.75,293.4a3.9,3.9,0,1,0-3.9-3.9A3.9,3.9,0,0,0,277.75,293.4Z"/>
        <path d="M290.556,299.4a3.9,3.9,0,1,0-3.9-3.9A3.9,3.9,0,0,0,290.556,299.4Z"/>
    </symbol>
    <symbol xmlns="http://www.w3.org/2000/svg" viewBox="0 0 31 22" id="menu">
        <rect width="31" height="3"/>
        <rect y="10" width="31" height="3"/>
        <rect x="10" y="19" width="21" height="3"/>
    </symbol>
    <symbol xmlns="http://www.w3.org/2000/svg" viewBox="0 0 46 46" id="close">
        <rect x="33.6066" y="35.0208" width="32" height="3" transform="rotate(-135 33.6066 35.0208)"/>
        <rect x="10.272" y="32.8994" width="32" height="3" transform="rotate(-45 10.272 32.8994)"/>
    </symbol>

</svg>